v -1.7156294e-17 -2.0625000e-2 -1.6052180e-2
v -2.3917715e-2 -2.0625000e-2 -1.1294650e-2
v -4.4194174e-2 -2.0625000e-2 2.2536466e-3
v -5.7742471e-2 -2.0625000e-2 2.2530106e-2
v -6.2500000e-2 -2.0625000e-2 4.6447820e-2
v -5.7742471e-2 -2.0625000e-2 0.29644782
v 5.7742471e-2 -2.0625000e-2 0.29644782
v 6.2500000e-2 -2.0625000e-2 4.6447820e-2
v 5.7742471e-2 -2.0625000e-2 2.2530106e-2
v 4.4194174e-2 -2.0625000e-2 2.2536466e-3
v 2.3917715e-2 -2.0625000e-2 -1.1294650e-2
v -2.3508940e-17 2.0625000e-2 -1.6052180e-2
v -2.3917715e-2 2.0625000e-2 -1.1294650e-2
v -4.4194174e-2 2.0625000e-2 2.2536466e-3
v -5.7742471e-2 2.0625000e-2 2.2530106e-2
v -6.2500000e-2 2.0625000e-2 4.6447820e-2
v -5.7742471e-2 2.0625000e-2 0.29644782
v 5.7742471e-2 2.0625000e-2 0.29644782
v 6.2500000e-2 2.0625000e-2 4.6447820e-2
v 5.7742471e-2 2.0625000e-2 2.2530106e-2
v 4.4194174e-2 2.0625000e-2 2.2536466e-3
v 2.3917715e-2 2.0625000e-2 -1.1294650e-2
v -2.5856195e-17 2.0625000e-2 4.6447820e-2
v -2.3330444e-17 -2.0625000e-2 4.6447820e-2
vn -1.1797367e-16 1.00000000 2.0551711e-16
vn 8.9551336e-17 -1.00000000 -1.4285042e-16
vn 1.4149670e-16 1.6483821e-16 -1.00000000
vn 1.4149670e-16 1.6483821e-16 -1.00000000
vn -3.0814879e-32 -1.00000000 -2.1758644e-16
vn -3.0814879e-32 -1.00000000 -2.1758644e-16
vn -0.38268343 1.1160921e-16 -0.92387953
vn -0.38268343 1.1160921e-16 -0.92387953
vn 3.2782934e-18 -1.00000000 -2.1758644e-16
vn 3.2782934e-18 -1.00000000 -2.1758644e-16
vn -0.70710678 2.9018394e-16 -0.70710678
vn -0.70710678 2.9018394e-16 -0.70710678
vn 1.2663784e-16 -1.00000000 -4.3517289e-16
vn 1.2663784e-16 -1.00000000 -4.3517289e-16
vn 1.6230792e-16 -1.00000000 -1.2692543e-16
vn -0.92387953 1.9917951e-16 -0.38268343
vn -0.92387953 1.9917951e-16 -0.38268343
vn 1.6230792e-16 -1.00000000 -1.2692543e-16
vn 9.1578347e-17 -1.00000000 4.6196867e-17
vn -0.99607220 3.3877684e-17 -8.8544749e-2
vn -0.99607220 3.3877684e-17 -8.8544749e-2
vn 9.1578347e-17 -1.00000000 4.6196867e-17
vn -0.99981898 0.0000000e+0 1.9026672e-2
vn 7.2134391e-17 -1.00000000 -2.3398593e-16
vn 0.0000000e+0 0.0000000e+0 1.00000000
vn 0.99981898 0.0000000e+0 1.9026672e-2
vn 7.2134391e-17 -1.00000000 -2.3398593e-16
vn 0.0000000e+0 0.0000000e+0 1.00000000
vn 0.99607220 3.0489915e-17 -8.8544749e-2
vn 0.99607220 3.0489915e-17 -8.8544749e-2
vn 6.3822771e-17 -1.00000000 -8.0728558e-17
vn 6.3822771e-17 -1.00000000 -8.0728558e-17
vn 0.92387953 5.8380201e-17 -0.38268343
vn 0.92387953 5.8380201e-17 -0.38268343
vn 7.0590122e-17 -1.00000000 -1.0879322e-16
vn 7.0590122e-17 -1.00000000 -1.0879322e-16
vn 0.70710678 1.8544299e-16 -0.70710678
vn 0.70710678 1.8544299e-16 -0.70710678
vn 1.5700925e-16 -1.00000000 -7.2528814e-17
vn 1.5700925e-16 -1.00000000 -7.2528814e-17
vn 0.38268343 3.3654469e-16 -0.92387953
vn 0.38268343 3.3654469e-16 -0.92387953
vn 1.3073748e-16 -1.00000000 -7.2528814e-17
vn 1.3073748e-16 -1.00000000 -7.2528814e-17
vn 1.4149670e-16 1.6483821e-16 -1.00000000
vn 1.4149670e-16 1.6483821e-16 -1.00000000
vn -7.3955710e-32 1.00000000 1.4505763e-16
vn -7.3955710e-32 1.00000000 1.4505763e-16
vn -0.38268343 1.1160921e-16 -0.92387953
vn -0.38268343 1.1160921e-16 -0.92387953
vn -1.3729407e-16 1.00000000 3.6264407e-16
vn -1.3729407e-16 1.00000000 3.6264407e-16
vn -0.70710678 2.9018394e-16 -0.70710678
vn -0.70710678 2.9018394e-16 -0.70710678
vn -2.0514247e-16 1.00000000 2.9011526e-16
vn -2.0514247e-16 1.00000000 2.9011526e-16
vn -0.92387953 1.9917951e-16 -0.38268343
vn -0.92387953 1.9917951e-16 -0.38268343
vn -1.0679677e-16 1.00000000 1.0879322e-16
vn -1.0679677e-16 1.00000000 1.0879322e-16
vn -0.99607220 3.3877684e-17 -8.8544749e-2
vn -0.99607220 3.3877684e-17 -8.8544749e-2
vn -1.1321866e-16 1.00000000 2.1767107e-16
vn -1.1321866e-16 1.00000000 2.1767107e-16
vn -0.99981898 0.0000000e+0 1.9026672e-2
vn -1.1541503e-16 1.00000000 2.1775569e-16
vn 0.0000000e+0 0.0000000e+0 1.00000000
vn 0.99981898 0.0000000e+0 1.9026672e-2
vn -1.1541503e-16 1.00000000 2.1775569e-16
vn 0.0000000e+0 0.0000000e+0 1.00000000
vn -1.1321866e-16 1.00000000 3.0833209e-16
vn 0.99607220 3.0489915e-17 -8.8544749e-2
vn 0.99607220 3.0489915e-17 -8.8544749e-2
vn -1.1321866e-16 1.00000000 3.0833209e-16
vn -9.8345698e-17 1.00000000 1.9945424e-16
vn 0.92387953 5.8380201e-17 -0.38268343
vn 0.92387953 5.8380201e-17 -0.38268343
vn -9.8345698e-17 1.00000000 1.9945424e-16
vn 0.70710678 1.8544299e-16 -0.70710678
vn 0.70710678 1.8544299e-16 -0.70710678
vn -1.5700925e-16 1.00000000 7.2528814e-17
vn -1.5700925e-16 1.00000000 7.2528814e-17
vn 0.38268343 3.3654469e-16 -0.92387953
vn 0.38268343 3.3654469e-16 -0.92387953
vn -1.3073748e-16 1.00000000 1.4505763e-16
vn -1.3073748e-16 1.00000000 1.4505763e-16
usemtl joint
f 1//3 12//45 22//83 11//41
f 1//6 24//2 2//9
f 2//8 13//50 12//46 1//4
f 2//10 24//2 3//13
f 3//12 14//54 13//49 2//7
f 3//14 24//2 4//18
f 4//17 15//58 14//53 3//11
f 4//15 24//2 5//19
f 5//21 16//62 15//57 4//16
f 5//22 24//2 8//31 7//27 6//24
f 6//25 7//28 18//70 17//67
f 6//23 17//65 16//61 5//20
f 8//30 19//73 18//68 7//26
f 8//32 24//2 9//35
f 9//34 20//77 19//72 8//29
f 9//36 24//2 10//39
f 10//38 21//80 20//76 9//33
f 10//40 24//2 11//43
f 11//42 22//84 21//79 10//37
f 11//44 24//2 1//5
f 12//47 23//1 22//86
f 13//51 23//1 12//48
f 14//55 23//1 13//52
f 15//59 23//1 14//56
f 16//64 23//1 15//60
f 17//66 18//69 19//74 23//1 16//63
f 20//75 23//1 19//71
f 21//81 23//1 20//78
f 22//85 23//1 21//82
o cylinder1_copy2
#24 vertices, 29 faces
v -2.0625000e-2 6.2502561e-18 1.6052180e-2
v -2.0625000e-2 -2.3917715e-2 1.1294650e-2
v -2.0625000e-2 -4.4194174e-2 -2.2536466e-3
v -2.0625000e-2 -5.7742471e-2 -2.2530106e-2
v -2.0625000e-2 -6.2500000e-2 -4.6447820e-2
v -2.0625000e-2 -5.7742471e-2 -0.29644782
v -2.0625000e-2 5.7742471e-2 -0.29644782
v -2.0625000e-2 6.2500000e-2 -4.6447820e-2
v -2.0625000e-2 5.7742471e-2 -2.2530106e-2
v -2.0625000e-2 4.4194174e-2 -2.2536466e-3
v -2.0625000e-2 2.3917715e-2 1.1294650e-2
v 2.0625000e-2 2.4233613e-18 1.6052180e-2
v 2.0625000e-2 -2.3917715e-2 1.1294650e-2
v 2.0625000e-2 -4.4194174e-2 -2.2536466e-3
v 2.0625000e-2 -5.7742471e-2 -2.2530106e-2
v 2.0625000e-2 -6.2500000e-2 -4.6447820e-2
v 2.0625000e-2 -5.7742471e-2 -0.29644782
v 2.0625000e-2 5.7742471e-2 -0.29644782
v 2.0625000e-2 6.2500000e-2 -4.6447820e-2
v 2.0625000e-2 5.7742471e-2 -2.2530106e-2
v 2.0625000e-2 4.4194174e-2 -2.2536466e-3
v 2.0625000e-2 2.3917715e-2 1.1294650e-2
v 2.0625000e-2 3.9031278e-18 -4.6447820e-2
v -2.0625000e-2 3.9031278e-18 -4.6447820e-2
vn 1.00000000 -7.1705409e-17 1.4361519e-17
vn -1.00000000 8.0587571e-18 1.9146329e-17
vn 1.6893895e-16 1.4149670e-16 1.00000000
vn 1.6893895e-16 1.4149670e-16 1.00000000
vn -1.00000000 -1.6023737e-31 0.0000000e+0
vn -1.00000000 -1.6023737e-31 0.0000000e+0
vn 1.2706279e-16 -0.38268343 0.92387953
vn 1.2706279e-16 -0.38268343 0.92387953
vn -1.00000000 -7.2528814e-17 0.0000000e+0
vn -1.00000000 -7.2528814e-17 0.0000000e+0
vn 3.5714946e-16 -0.70710678 0.70710678
vn 3.5714946e-16 -0.70710678 0.70710678
vn -1.00000000 3.6264407e-17 5.1285616e-17
vn -1.00000000 3.6264407e-17 5.1285616e-17
vn -1.00000000 7.2528814e-17 4.5764689e-17
vn 2.1978429e-16 -0.92387953 0.38268343
vn 2.1978429e-16 -0.92387953 0.38268343
vn -1.00000000 7.2528814e-17 4.5764689e-17
vn -1.00000000 7.2528814e-17 1.3629667e-17
vn 0.0000000e+0 -0.99607220 8.8544749e-2
vn 0.0000000e+0 -0.99607220 8.8544749e-2
vn -1.00000000 7.2528814e-17 1.3629667e-17
vn 0.0000000e+0 -0.99981898 -1.9026672e-2
vn -1.00000000 0.0000000e+0 3.8301189e-17
vn 0.0000000e+0 0.0000000e+0 -1.00000000
vn 0.0000000e+0 0.99981898 -1.9026672e-2
vn -1.00000000 0.0000000e+0 3.8301189e-17
vn 0.0000000e+0 0.0000000e+0 -1.00000000
vn 5.4204294e-17 0.99607220 8.8544749e-2
vn 5.4204294e-17 0.99607220 8.8544749e-2
vn -1.00000000 0.0000000e+0 9.1679409e-17
vn -1.00000000 0.0000000e+0 9.1679409e-17
vn 2.7473036e-17 0.92387953 0.38268343
vn 2.7473036e-17 0.92387953 0.38268343
vn -1.00000000 0.0000000e+0 2.1243198e-17
vn -1.00000000 0.0000000e+0 2.1243198e-17
vn 1.3736518e-16 0.70710678 0.70710678
vn 1.3736518e-16 0.70710678 0.70710678
vn -1.00000000 -7.2528814e-17 -5.1285616e-17
vn -1.00000000 -7.2528814e-17 -5.1285616e-17
vn 3.4407956e-16 0.38268343 0.92387953
vn 3.4407956e-16 0.38268343 0.92387953
vn -1.00000000 3.6264407e-17 0.0000000e+0
vn -1.00000000 3.6264407e-17 0.0000000e+0
vn 1.6893895e-16 1.4149670e-16 1.00000000
vn 1.6893895e-16 1.4149670e-16 1.00000000
vn 1.00000000 5.4396611e-17 0.0000000e+0
vn 1.00000000 5.4396611e-17 0.0000000e+0
vn 1.2706279e-16 -0.38268343 0.92387953
vn 1.2706279e-16 -0.38268343 0.92387953
vn 1.00000000 -1.5412373e-16 -5.5511151e-17
vn 1.00000000 -1.5412373e-16 -5.5511151e-17
vn 3.5714946e-16 -0.70710678 0.70710678
vn 3.5714946e-16 -0.70710678 0.70710678
vn 1.00000000 -2.1758644e-16 2.7219006e-17
vn 1.00000000 -2.1758644e-16 2.7219006e-17
vn 2.1978429e-16 -0.92387953 0.38268343
vn 2.1978429e-16 -0.92387953 0.38268343
vn 1.00000000 0.0000000e+0 8.8251085e-17
vn 1.00000000 0.0000000e+0 8.8251085e-17
vn 0.0000000e+0 -0.99607220 8.8544749e-2
vn 0.0000000e+0 -0.99607220 8.8544749e-2
vn 1.00000000 -1.4426878e-17 -8.3568606e-18
vn 1.00000000 -1.4426878e-17 -8.3568606e-18
vn 0.0000000e+0 -0.99981898 -1.9026672e-2
vn 1.00000000 -2.8853756e-17 -2.7755576e-17
vn 0.0000000e+0 0.0000000e+0 -1.00000000
vn 0.0000000e+0 0.99981898 -1.9026672e-2
vn 1.00000000 -2.8853756e-17 -2.7755576e-17
vn 0.0000000e+0 0.0000000e+0 -1.00000000
vn 1.00000000 -8.6955692e-17 -1.9398715e-17
vn 5.4204294e-17 0.99607220 8.8544749e-2
vn 5.4204294e-17 0.99607220 8.8544749e-2
vn 1.00000000 -8.6955692e-17 -1.9398715e-17
vn 1.00000000 -1.0879322e-16 4.5764689e-17
vn 2.7473036e-17 0.92387953 0.38268343
vn 2.7473036e-17 0.92387953 0.38268343
vn 1.00000000 -1.0879322e-16 4.5764689e-17
vn 1.3736518e-16 0.70710678 0.70710678
vn 1.3736518e-16 0.70710678 0.70710678
vn 1.00000000 -7.2528814e-17 5.1285616e-17
vn 1.00000000 -7.2528814e-17 5.1285616e-17
vn 3.4407956e-16 0.38268343 0.92387953
vn 3.4407956e-16 0.38268343 0.92387953
vn 1.00000000 -4.5330509e-17 0.0000000e+0
vn 1.00000000 -4.5330509e-17 0.0000000e+0
usemtl joint
f 25//89 36//131 46//169 35//127
f 25//92 48//88 26//95
f 26//94 37//136 36//132 25//90
f 26//96 48//88 27//99
f 27//98 38//140 37//135 26//93
f 27//100 48//88 28//104
f 28//103 39//144 38//139 27//97
f 28//101 48//88 29//105
f 29//107 40//148 39//143 28//102
f 29//108 48//88 32//117 31//113 30//110
f 30//111 31//114 42//156 41//153
f 30//109 41//151 40//147 29//106
f 32//116 43//159 42//154 31//112
f 32//118 48//88 33//121
f 33//120 44//163 43//158 32//115
f 33//122 48//88 34//125
f 34//124 45//166 44//162 33//119
f 34//126 48//88 35//129
f 35//128 46//170 45//165 34//123
f 35//130 48//88 25//91
f 36//133 47//87 46//172
f 37//137 47//87 36//134
f 38//141 47//87 37//138
f 39//145 47//87 38//142
f 40//150 47//87 39//146
f 41//152 42//155 43//160 47//87 40//149
f 44//161 47//87 43//157
f 45//167 47//87 44//164
f 46//171 47//87 45//168
