v 0.25000000 2.9748544e-17 -6.2500000e-2
v 0.25000000 -2.3917715e-2 -5.7742471e-2
v 0.25000000 -4.4194174e-2 -4.4194174e-2
v 0.25000000 -5.7742471e-2 -2.3917715e-2
v 0.25000000 -6.2500000e-2 6.8632588e-18
v 0.25000000 -5.7742471e-2 2.3917715e-2
v 0.25000000 -4.4194174e-2 4.4194174e-2
v 0.25000000 -2.3917715e-2 5.7742471e-2
v 0.25000000 2.2094755e-17 6.2500000e-2
v 0.25000000 2.3917715e-2 5.7742471e-2
v 0.25000000 4.4194174e-2 4.4194174e-2
v 0.25000000 5.7742471e-2 2.3917715e-2
v 0.25000000 6.2500000e-2 2.2170838e-17
v 0.25000000 5.7742471e-2 -2.3917715e-2
v 0.25000000 4.4194174e-2 -4.4194174e-2
v 0.25000000 2.3917715e-2 -5.7742471e-2
v -0.25000000 2.2094755e-17 -6.2500000e-2
v -0.25000000 -2.3917715e-2 -5.7742471e-2
v -0.25000000 -4.4194174e-2 -4.4194174e-2
v -0.25000000 -5.7742471e-2 -2.3917715e-2
v -0.25000000 -6.2500000e-2 -2.3751900e-17
v -0.25000000 -5.7742471e-2 2.3917715e-2
v -0.25000000 -4.4194174e-2 4.4194174e-2
v -0.25000000 -2.3917715e-2 5.7742471e-2
v -0.25000000 1.4440965e-17 6.2500000e-2
v -0.25000000 2.3917715e-2 5.7742471e-2
v -0.25000000 4.4194174e-2 4.4194174e-2
v -0.25000000 5.7742471e-2 2.3917715e-2
v -0.25000000 6.2500000e-2 -8.4443206e-18
v -0.25000000 5.7742471e-2 -2.3917715e-2
v -0.25000000 4.4194174e-2 -4.4194174e-2
v -0.25000000 2.3917715e-2 -5.7742471e-2
v 0.25000000 2.8198474e-17 1.4517049e-17
v -0.25000000 2.4729027e-17 -1.6098110e-17
vn 1.00000000 1.4505763e-16 1.2325952e-32
vn -1.00000000 -1.4505763e-16 6.1629758e-33
vn 6.2203930e-17 1.5564637e-16 -1.00000000
vn 6.2203930e-17 1.5564637e-16 -1.00000000
vn 1.00000000 -1.1832914e-30 0.0000000e+0
vn 1.00000000 -1.1832914e-30 0.0000000e+0
vn 6.1762818e-17 -0.38268343 -0.92387953
vn 6.1762818e-17 -0.38268343 -0.92387953
vn 1.00000000 -1.1604610e-15 0.0000000e+0
vn 1.00000000 -1.1604610e-15 0.0000000e+0
vn 6.1196187e-17 -0.70710678 -0.70710678
vn 6.1196187e-17 -0.70710678 -0.70710678
vn 1.00000000 0.0000000e+0 0.0000000e+0
vn 1.00000000 0.0000000e+0 0.0000000e+0
vn 1.00000000 0.0000000e+0 0.0000000e+0
vn 4.9863560e-17 -0.92387953 -0.38268343
vn 4.9863560e-17 -0.92387953 -0.38268343
vn 1.00000000 0.0000000e+0 0.0000000e+0
vn 1.00000000 0.0000000e+0 0.0000000e+0
vn 2.2665254e-17 -1.00000000 1.4149670e-17
vn 2.2665254e-17 -1.00000000 1.4149670e-17
vn 1.00000000 0.0000000e+0 0.0000000e+0
vn -2.2665254e-18 -0.92387953 0.38268343
vn -2.2665254e-18 -0.92387953 0.38268343
vn 1.00000000 0.0000000e+0 0.0000000e+0
vn 1.00000000 0.0000000e+0 0.0000000e+0
vn -2.3798517e-17 -0.70710678 0.70710678
vn -2.3798517e-17 -0.70710678 0.70710678
vn 1.00000000 0.0000000e+0 0.0000000e+0
vn 1.00000000 0.0000000e+0 0.0000000e+0
vn -4.3133049e-17 -0.38268343 0.92387953
vn -4.3133049e-17 -0.38268343 0.92387953
vn 1.00000000 0.0000000e+0 0.0000000e+0
vn 1.00000000 0.0000000e+0 0.0000000e+0
vn -5.5598939e-17 -1.2734703e-16 1.00000000
vn -5.5598939e-17 -1.2734703e-16 1.00000000
vn 1.00000000 0.0000000e+0 0.0000000e+0
vn 1.00000000 0.0000000e+0 0.0000000e+0
vn -6.3462713e-17 0.38268343 0.92387953
vn -6.3462713e-17 0.38268343 0.92387953
vn 1.00000000 0.0000000e+0 0.0000000e+0
vn 1.00000000 0.0000000e+0 0.0000000e+0
vn -6.5729238e-17 0.70710678 0.70710678
vn -6.5729238e-17 0.70710678 0.70710678
vn 1.00000000 0.0000000e+0 -4.1028493e-16
vn 1.00000000 0.0000000e+0 -4.1028493e-16
vn -4.5330509e-17 0.92387953 0.38268343
vn -4.5330509e-17 0.92387953 0.38268343
vn 1.00000000 5.8023051e-16 -3.6611751e-16
vn 1.00000000 5.8023051e-16 -3.6611751e-16
vn -1.3599153e-17 1.00000000 1.8394571e-16
vn -1.3599153e-17 1.00000000 1.8394571e-16
vn 1.00000000 1.1604610e-15 9.2444637e-32
vn 1.00000000 1.1604610e-15 9.2444637e-32
vn 4.5330509e-18 0.92387953 -0.38268343
vn 4.5330509e-18 0.92387953 -0.38268343
vn 1.00000000 5.8023051e-16 3.6611751e-16
vn 1.00000000 5.8023051e-16 3.6611751e-16
vn 2.2665254e-17 0.70710678 -0.70710678
vn 2.2665254e-17 0.70710678 -0.70710678
vn 1.00000000 0.0000000e+0 4.1028493e-16
vn 1.00000000 0.0000000e+0 4.1028493e-16
vn 4.8038146e-17 0.38268343 -0.92387953
vn 4.8038146e-17 0.38268343 -0.92387953
vn 1.00000000 1.1604610e-15 0.0000000e+0
vn 1.00000000 1.1604610e-15 0.0000000e+0
vn 6.2203930e-17 1.5564637e-16 -1.00000000
vn 6.2203930e-17 1.5564637e-16 -1.00000000
vn -1.00000000 0.0000000e+0 0.0000000e+0
vn -1.00000000 0.0000000e+0 0.0000000e+0
vn 6.1762818e-17 -0.38268343 -0.92387953
vn 6.1762818e-17 -0.38268343 -0.92387953
vn -1.00000000 0.0000000e+0 0.0000000e+0
vn -1.00000000 0.0000000e+0 0.0000000e+0
vn 6.1196187e-17 -0.70710678 -0.70710678
vn 6.1196187e-17 -0.70710678 -0.70710678
vn -1.00000000 -5.8023051e-16 4.1028493e-16
vn -1.00000000 -5.8023051e-16 4.1028493e-16
vn 4.9863560e-17 -0.92387953 -0.38268343
vn 4.9863560e-17 -0.92387953 -0.38268343
vn -1.00000000 -1.1604610e-15 3.6611751e-16
vn -1.00000000 -1.1604610e-15 3.6611751e-16
vn 2.2665254e-17 -1.00000000 1.4149670e-17
vn 2.2665254e-17 -1.00000000 1.4149670e-17
vn -1.00000000 -1.1604610e-15 1.2325952e-32
vn -1.00000000 -1.1604610e-15 1.2325952e-32
vn -2.2665254e-18 -0.92387953 0.38268343
vn -2.2665254e-18 -0.92387953 0.38268343
vn -1.00000000 -9.8607613e-32 -3.6611751e-16
vn -1.00000000 -9.8607613e-32 -3.6611751e-16
vn -2.3798517e-17 -0.70710678 0.70710678
vn -2.3798517e-17 -0.70710678 0.70710678
vn -1.00000000 5.8023051e-16 -4.1028493e-16
vn -1.00000000 5.8023051e-16 -4.1028493e-16
vn -4.3133049e-17 -0.38268343 0.92387953
vn -4.3133049e-17 -0.38268343 0.92387953
vn -1.00000000 0.0000000e+0 0.0000000e+0
vn -1.00000000 0.0000000e+0 0.0000000e+0
vn -5.5598939e-17 -1.2734703e-16 1.00000000
vn -5.5598939e-17 -1.2734703e-16 1.00000000
vn -1.00000000 0.0000000e+0 0.0000000e+0
vn -1.00000000 0.0000000e+0 0.0000000e+0
vn -6.3462713e-17 0.38268343 0.92387953
vn -6.3462713e-17 0.38268343 0.92387953
vn -1.00000000 0.0000000e+0 0.0000000e+0
vn -1.00000000 0.0000000e+0 0.0000000e+0
vn -6.5729238e-17 0.70710678 0.70710678
vn -6.5729238e-17 0.70710678 0.70710678
vn -1.00000000 -5.8023051e-16 0.0000000e+0
vn -1.00000000 -5.8023051e-16 0.0000000e+0
vn -4.5330509e-17 0.92387953 0.38268343
vn -4.5330509e-17 0.92387953 0.38268343
vn -1.00000000 -1.0846837e-30 0.0000000e+0
vn -1.00000000 -1.0846837e-30 0.0000000e+0
vn -1.00000000 1.9721523e-31 0.0000000e+0
vn -1.3599153e-17 1.00000000 1.8394571e-16
vn -1.3599153e-17 1.00000000 1.8394571e-16
vn -1.00000000 1.9721523e-31 0.0000000e+0
vn -1.00000000 1.3805066e-30 0.0000000e+0
vn 4.5330509e-18 0.92387953 -0.38268343
vn 4.5330509e-18 0.92387953 -0.38268343
vn -1.00000000 1.3805066e-30 0.0000000e+0
vn 2.2665254e-17 0.70710678 -0.70710678
vn 2.2665254e-17 0.70710678 -0.70710678
vn -1.00000000 5.8023051e-16 0.0000000e+0
vn -1.00000000 5.8023051e-16 0.0000000e+0
vn 4.8038146e-17 0.38268343 -0.92387953
vn 4.8038146e-17 0.38268343 -0.92387953
vn -1.00000000 0.0000000e+0 0.0000000e+0
vn -1.00000000 0.0000000e+0 0.0000000e+0
usemtl joint
f 1//3 17//67 32//127 16//63
f 1//5 33//1 2//10
f 2//8 18//72 17//68 1//4
f 2//9 33//1 3//14
f 3//12 19//76 18//71 2//7
f 3//13 33//1 4//18
f 4//17 20//80 19//75 3//11
f 4//15 33//1 5//19
f 5//21 21//84 20//79 4//16
f 5//22 33//1 6//26
f 6//24 22//88 21//83 5//20
f 6//25 33//1 7//30
f 7//28 23//92 22//87 6//23
f 7//29 33//1 8//34
f 8//32 24//96 23//91 7//27
f 8//33 33//1 9//38
f 9//36 25//100 24//95 8//31
f 9//37 33//1 10//42
f 10//40 26//104 25//99 9//35
f 10//41 33//1 11//46
f 11//44 27//108 26//103 10//39
f 11//45 33//1 12//50
f 12//48 28//112 27//107 11//43
f 12//49 33//1 13//53
f 13//52 29//117 28//111 12//47
f 13//54 33//1 14//58
f 14//56 30//121 29//116 13//51
f 14//57 33//1 15//62
f 15//60 31//124 30//120 14//55
f 15//61 33//1 16//66
f 16//64 32//128 31//123 15//59
f 16//65 33//1 1//6
f 17//69 34//2 32//130
f 18//73 34//2 17//70
f 19//77 34//2 18//74
f 20//81 34//2 19//78
f 21//86 34//2 20//82
f 22//89 34//2 21//85
f 23//93 34//2 22//90
f 24//97 34//2 23//94
f 25//101 34//2 24//98
f 26//105 34//2 25//102
f 27//109 34//2 26//106
f 28//113 34//2 27//110
f 29//118 34//2 28//114
f 30//119 34//2 29//115
f 31//125 34//2 30//122
f 32//129 34//2 31//126
