# Exported from Wings 3D 0.98.34
mtllib box.mtl
o cube1
#24 vertices, 26 faces
v -0.47534958 0.47534958 0.50000000
v -0.47534958 -0.47534958 0.50000000
v 0.47534958 -0.47534958 0.50000000
v 0.47534958 0.47534958 0.50000000
v -0.50000000 -0.47534958 0.47534958
v -0.50000000 0.47534958 0.47534958
v -0.50000000 0.47534958 -0.47534958
v -0.50000000 -0.47534958 -0.47534958
v -0.47534958 0.50000000 0.47534958
v 0.47534958 0.50000000 0.47534958
v 0.47534958 0.50000000 -0.47534958
v -0.47534958 0.50000000 -0.47534958
v -0.47534958 -0.47534958 -0.50000000
v -0.47534958 0.47534958 -0.50000000
v 0.47534958 0.47534958 -0.50000000
v 0.47534958 -0.47534958 -0.50000000
v 0.50000000 0.47534958 0.47534958
v 0.50000000 -0.47534958 0.47534958
v 0.50000000 -0.47534958 -0.47534958
v 0.50000000 0.47534958 -0.47534958
v 0.47534958 -0.50000000 0.47534958
v -0.47534958 -0.50000000 0.47534958
v -0.47534958 -0.50000000 -0.47534958
v 0.47534958 -0.50000000 -0.47534958
vn 0.0000000e+0 0.0000000e+0 1.00000000
vn -0.57735027 0.57735027 0.57735027
vn -0.70710678 0.0000000e+0 0.70710678
vn 0.0000000e+0 0.70710678 0.70710678
vn 0.0000000e+0 0.0000000e+0 1.00000000
vn -0.57735027 -0.57735027 0.57735027
vn 0.0000000e+0 -0.70710678 0.70710678
vn -0.70710678 0.0000000e+0 0.70710678
vn 0.0000000e+0 0.0000000e+0 1.00000000
vn 0.57735027 -0.57735027 0.57735027
vn 0.0000000e+0 -0.70710678 0.70710678
vn 0.70710678 0.0000000e+0 0.70710678
vn 0.0000000e+0 0.0000000e+0 1.00000000
vn 0.57735027 0.57735027 0.57735027
vn 0.0000000e+0 0.70710678 0.70710678
vn 0.70710678 0.0000000e+0 0.70710678
vn -1.00000000 0.0000000e+0 0.0000000e+0
vn -0.57735027 -0.57735027 0.57735027
vn -0.70710678 0.0000000e+0 0.70710678
vn -0.70710678 -0.70710678 0.0000000e+0
vn -1.00000000 0.0000000e+0 0.0000000e+0
vn -0.57735027 0.57735027 0.57735027
vn -0.70710678 0.70710678 0.0000000e+0
vn -0.70710678 0.0000000e+0 0.70710678
vn -1.00000000 0.0000000e+0 0.0000000e+0
vn -0.70710678 0.70710678 0.0000000e+0
vn -0.57735027 0.57735027 -0.57735027
vn -0.70710678 0.0000000e+0 -0.70710678
vn -1.00000000 0.0000000e+0 0.0000000e+0
vn -0.57735027 -0.57735027 -0.57735027
vn -0.70710678 -0.70710678 0.0000000e+0
vn -0.70710678 0.0000000e+0 -0.70710678
vn 0.0000000e+0 1.00000000 0.0000000e+0
vn -0.57735027 0.57735027 0.57735027
vn -0.70710678 0.70710678 0.0000000e+0
vn 0.0000000e+0 0.70710678 0.70710678
vn 0.0000000e+0 1.00000000 0.0000000e+0
vn 0.57735027 0.57735027 0.57735027
vn 0.70710678 0.70710678 0.0000000e+0
vn 0.0000000e+0 0.70710678 0.70710678
vn 0.0000000e+0 1.00000000 0.0000000e+0
vn 0.57735027 0.57735027 -0.57735027
vn 0.70710678 0.70710678 0.0000000e+0
vn 0.0000000e+0 0.70710678 -0.70710678
vn 0.0000000e+0 1.00000000 0.0000000e+0
vn -0.70710678 0.70710678 0.0000000e+0
vn -0.57735027 0.57735027 -0.57735027
vn 0.0000000e+0 0.70710678 -0.70710678
vn 0.0000000e+0 0.0000000e+0 -1.00000000
vn -0.57735027 -0.57735027 -0.57735027
vn -0.70710678 0.0000000e+0 -0.70710678
vn 0.0000000e+0 -0.70710678 -0.70710678
vn 0.0000000e+0 0.0000000e+0 -1.00000000
vn -0.57735027 0.57735027 -0.57735027
vn -0.70710678 0.0000000e+0 -0.70710678
vn 0.0000000e+0 0.70710678 -0.70710678
vn 0.0000000e+0 0.0000000e+0 -1.00000000
vn 0.57735027 0.57735027 -0.57735027
vn 0.70710678 0.0000000e+0 -0.70710678
vn 0.0000000e+0 0.70710678 -0.70710678
vn 0.0000000e+0 0.0000000e+0 -1.00000000
vn 0.70710678 0.0000000e+0 -0.70710678
vn 0.57735027 -0.57735027 -0.57735027
vn 0.0000000e+0 -0.70710678 -0.70710678
vn 1.00000000 0.0000000e+0 0.0000000e+0
vn 0.57735027 0.57735027 0.57735027
vn 0.70710678 0.70710678 0.0000000e+0
vn 0.70710678 0.0000000e+0 0.70710678
vn 1.00000000 0.0000000e+0 0.0000000e+0
vn 0.57735027 -0.57735027 0.57735027
vn 0.70710678 -0.70710678 0.0000000e+0
vn 0.70710678 0.0000000e+0 0.70710678
vn 1.00000000 0.0000000e+0 0.0000000e+0
vn 0.70710678 -0.70710678 0.0000000e+0
vn 0.70710678 0.0000000e+0 -0.70710678
vn 0.57735027 -0.57735027 -0.57735027
vn 1.00000000 0.0000000e+0 0.0000000e+0
vn 0.57735027 0.57735027 -0.57735027
vn 0.70710678 0.70710678 0.0000000e+0
vn 0.70710678 0.0000000e+0 -0.70710678
vn 0.0000000e+0 -1.00000000 0.0000000e+0
vn 0.57735027 -0.57735027 0.57735027
vn 0.0000000e+0 -0.70710678 0.70710678
vn 0.70710678 -0.70710678 0.0000000e+0
vn 0.0000000e+0 -1.00000000 0.0000000e+0
vn -0.57735027 -0.57735027 0.57735027
vn 0.0000000e+0 -0.70710678 0.70710678
vn -0.70710678 -0.70710678 0.0000000e+0
vn 0.0000000e+0 -1.00000000 0.0000000e+0
vn -0.57735027 -0.57735027 -0.57735027
vn -0.70710678 -0.70710678 0.0000000e+0
vn 0.0000000e+0 -0.70710678 -0.70710678
vn 0.0000000e+0 -1.00000000 0.0000000e+0
vn 0.70710678 -0.70710678 0.0000000e+0
vn 0.57735027 -0.57735027 -0.57735027
vn 0.0000000e+0 -0.70710678 -0.70710678
g cube1_box
usemtl box
f 1//3 6//24 5//19 2//8
f 2//5 3//9 4//13 1//1
f 2//7 22//87 21//83 3//11
f 3//12 18//72 17//68 4//16
f 4//15 10//40 9//36 1//4
f 5//18 22//86 2//6
f 6//21 7//25 8//29 5//17
f 6//23 9//35 12//46 7//26
f 7//28 14//55 13//51 8//32
f 8//31 23//91 22//88 5//20
f 9//34 6//22 1//2
f 10//37 11//41 12//45 9//33
f 10//39 17//67 20//79 11//43
f 11//44 15//60 14//56 12//48
f 12//47 14//54 7//27
f 13//50 23//90 8//30
f 14//53 15//57 16//61 13//49
f 15//59 20//80 19//75 16//62
f 16//64 24//96 23//92 13//52
f 17//66 10//38 4//14
f 18//69 19//73 20//77 17//65
f 18//71 21//84 24//94 19//74
f 19//76 24//95 16//63
f 20//78 15//58 11//42
f 21//82 18//70 3//10
f 22//85 23//89 24//93 21//81
