# Exported from Wings 3D 0.98.34
mtllib joint_amotor.mtl
o cylinder1_copy3
#34 vertices, 48 faces
v 0.25000000 6.3016062e-17 1.00000000
v 0.23096988 -9.5670858e-2 1.00000000
v 0.17677670 -0.17677670 1.00000000
v 9.5670858e-2 -0.23096988 1.00000000
v -1.8519528e-17 -0.25000000 1.00000000
v -9.5670858e-2 -0.23096988 1.00000000
v -0.17677670 -0.17677670 1.00000000
v -0.23096988 -9.5670858e-2 1.00000000
v -0.25000000 3.2400904e-17 1.00000000
v -0.23096988 9.5670858e-2 1.00000000
v -0.17677670 0.17677670 1.00000000
v -9.5670858e-2 0.23096988 1.00000000
v -7.9749846e-17 0.25000000 1.00000000
v 9.5670858e-2 0.23096988 1.00000000
v 0.17677670 0.17677670 1.00000000
v 0.23096988 9.5670858e-2 1.00000000
v 0.25000000 -5.9444573e-17 -1.00000000
v 0.23096988 -9.5670858e-2 -1.00000000
v 0.17677670 -0.17677670 -1.00000000
v 9.5670858e-2 -0.23096988 -1.00000000
v -1.8519528e-17 -0.25000000 -1.00000000
v -9.5670858e-2 -0.23096988 -1.00000000
v -0.17677670 -0.17677670 -1.00000000
v -0.23096988 -9.5670858e-2 -1.00000000
v -0.25000000 -9.0059732e-17 -1.00000000
v -0.23096988 9.5670858e-2 -1.00000000
v -0.17677670 0.17677670 -1.00000000
v -9.5670858e-2 0.23096988 -1.00000000
v -7.9749846e-17 0.25000000 -1.00000000
v 9.5670858e-2 0.23096988 -1.00000000
v 0.17677670 0.17677670 -1.00000000
v 0.23096988 9.5670858e-2 -1.00000000
v -4.9134687e-17 6.0413977e-17 1.00000000
v -4.9134687e-17 -6.2046658e-17 -1.00000000
vn -8.6281662e-32 0.0000000e+0 1.00000000
vn 0.0000000e+0 0.0000000e+0 -1.00000000
vn 1.00000000 1.5564637e-16 4.5330509e-18
vn 1.00000000 1.5564637e-16 4.5330509e-18
vn -6.9025329e-31 0.0000000e+0 1.00000000
vn -6.9025329e-31 0.0000000e+0 1.00000000
vn 0.92387953 -0.38268343 2.0398729e-17
vn 0.92387953 -0.38268343 2.0398729e-17
vn -5.8023051e-16 0.0000000e+0 1.00000000
vn -5.8023051e-16 0.0000000e+0 1.00000000
vn 0.70710678 -0.70710678 3.6264407e-17
vn 0.70710678 -0.70710678 3.6264407e-17
vn 0.0000000e+0 0.0000000e+0 1.00000000
vn 0.0000000e+0 0.0000000e+0 1.00000000
vn 0.0000000e+0 0.0000000e+0 1.00000000
vn 0.38268343 -0.92387953 5.2590556e-17
vn 0.38268343 -0.92387953 5.2590556e-17
vn 0.0000000e+0 0.0000000e+0 1.00000000
vn 0.0000000e+0 0.0000000e+0 1.00000000
vn 0.0000000e+0 -1.00000000 5.5423713e-17
vn 0.0000000e+0 -1.00000000 5.5423713e-17
vn 0.0000000e+0 0.0000000e+0 1.00000000
vn -0.38268343 -0.92387953 4.8163666e-17
vn -0.38268343 -0.92387953 4.8163666e-17
vn 0.0000000e+0 0.0000000e+0 1.00000000
vn 0.0000000e+0 0.0000000e+0 1.00000000
vn -0.70710678 -0.70710678 4.3063984e-17
vn -0.70710678 -0.70710678 4.3063984e-17
vn 0.0000000e+0 0.0000000e+0 1.00000000
vn 0.0000000e+0 0.0000000e+0 1.00000000
vn -0.92387953 -0.38268343 3.1731356e-17
vn -0.92387953 -0.38268343 3.1731356e-17
vn 0.0000000e+0 0.0000000e+0 1.00000000
vn 0.0000000e+0 0.0000000e+0 1.00000000
vn -1.00000000 -1.2734703e-16 9.0661018e-18
vn -1.00000000 -1.2734703e-16 9.0661018e-18
vn 0.0000000e+0 0.0000000e+0 1.00000000
vn 0.0000000e+0 0.0000000e+0 1.00000000
vn -0.92387953 0.38268343 -1.5865678e-17
vn -0.92387953 0.38268343 -1.5865678e-17
vn 0.0000000e+0 0.0000000e+0 1.00000000
vn 0.0000000e+0 0.0000000e+0 1.00000000
vn -0.70710678 0.70710678 -3.9664195e-17
vn -0.70710678 0.70710678 -3.9664195e-17
vn 0.0000000e+0 0.0000000e+0 1.00000000
vn 0.0000000e+0 0.0000000e+0 1.00000000
vn -0.38268343 0.92387953 -5.1563148e-17
vn -0.38268343 0.92387953 -5.1563148e-17
vn 0.0000000e+0 0.0000000e+0 1.00000000
vn 0.0000000e+0 0.0000000e+0 1.00000000
vn -2.5469406e-16 1.00000000 -5.5529568e-17
vn -2.5469406e-16 1.00000000 -5.5529568e-17
vn 0.0000000e+0 0.0000000e+0 1.00000000
vn 0.0000000e+0 0.0000000e+0 1.00000000
vn 0.38268343 0.92387953 -5.2696717e-17
vn 0.38268343 0.92387953 -5.2696717e-17
vn 0.0000000e+0 0.0000000e+0 1.00000000
vn 0.0000000e+0 0.0000000e+0 1.00000000
vn 0.70710678 0.70710678 -3.8530933e-17
vn 0.70710678 0.70710678 -3.8530933e-17
vn 0.0000000e+0 0.0000000e+0 1.00000000
vn 0.0000000e+0 0.0000000e+0 1.00000000
vn 0.92387953 0.38268343 -1.8132204e-17
vn 0.92387953 0.38268343 -1.8132204e-17
vn 5.8023051e-16 0.0000000e+0 1.00000000
vn 5.8023051e-16 0.0000000e+0 1.00000000
vn 1.00000000 1.5564637e-16 4.5330509e-18
vn 1.00000000 1.5564637e-16 4.5330509e-18
vn 0.0000000e+0 0.0000000e+0 -1.00000000
vn 0.0000000e+0 0.0000000e+0 -1.00000000
vn 0.92387953 -0.38268343 2.0398729e-17
vn 0.92387953 -0.38268343 2.0398729e-17
vn 0.0000000e+0 0.0000000e+0 -1.00000000
vn 0.0000000e+0 0.0000000e+0 -1.00000000
vn 0.70710678 -0.70710678 3.6264407e-17
vn 0.70710678 -0.70710678 3.6264407e-17
vn 0.0000000e+0 0.0000000e+0 -1.00000000
vn 0.0000000e+0 0.0000000e+0 -1.00000000
vn 0.38268343 -0.92387953 5.2590556e-17
vn 0.38268343 -0.92387953 5.2590556e-17
vn 0.0000000e+0 0.0000000e+0 -1.00000000
vn 0.0000000e+0 0.0000000e+0 -1.00000000
vn 0.0000000e+0 -1.00000000 5.5423713e-17
vn 0.0000000e+0 -1.00000000 5.5423713e-17
vn 0.0000000e+0 0.0000000e+0 -1.00000000
vn 0.0000000e+0 0.0000000e+0 -1.00000000
vn -0.38268343 -0.92387953 4.8163666e-17
vn -0.38268343 -0.92387953 4.8163666e-17
vn 0.0000000e+0 0.0000000e+0 -1.00000000
vn 0.0000000e+0 0.0000000e+0 -1.00000000
vn -0.70710678 -0.70710678 4.3063984e-17
vn -0.70710678 -0.70710678 4.3063984e-17
vn 0.0000000e+0 0.0000000e+0 -1.00000000
vn 0.0000000e+0 0.0000000e+0 -1.00000000
vn -0.92387953 -0.38268343 3.1731356e-17
vn -0.92387953 -0.38268343 3.1731356e-17
vn 0.0000000e+0 0.0000000e+0 -1.00000000
vn 0.0000000e+0 0.0000000e+0 -1.00000000
vn -1.00000000 -1.2734703e-16 9.0661018e-18
vn -1.00000000 -1.2734703e-16 9.0661018e-18
vn 0.0000000e+0 0.0000000e+0 -1.00000000
vn 0.0000000e+0 0.0000000e+0 -1.00000000
vn -0.92387953 0.38268343 -1.5865678e-17
vn -0.92387953 0.38268343 -1.5865678e-17
vn 0.0000000e+0 0.0000000e+0 -1.00000000
vn 0.0000000e+0 0.0000000e+0 -1.00000000
vn -0.70710678 0.70710678 -3.9664195e-17
vn -0.70710678 0.70710678 -3.9664195e-17
vn 0.0000000e+0 0.0000000e+0 -1.00000000
vn 0.0000000e+0 0.0000000e+0 -1.00000000
vn -0.38268343 0.92387953 -5.1563148e-17
vn -0.38268343 0.92387953 -5.1563148e-17
vn 0.0000000e+0 0.0000000e+0 -1.00000000
vn 0.0000000e+0 0.0000000e+0 -1.00000000
vn 0.0000000e+0 0.0000000e+0 -1.00000000
vn -2.5469406e-16 1.00000000 -5.5529568e-17
vn -2.5469406e-16 1.00000000 -5.5529568e-17
vn 0.0000000e+0 0.0000000e+0 -1.00000000
vn 0.0000000e+0 0.0000000e+0 -1.00000000
vn 0.38268343 0.92387953 -5.2696717e-17
vn 0.38268343 0.92387953 -5.2696717e-17
vn 0.0000000e+0 0.0000000e+0 -1.00000000
vn 0.70710678 0.70710678 -3.8530933e-17
vn 0.70710678 0.70710678 -3.8530933e-17
vn 0.0000000e+0 0.0000000e+0 -1.00000000
vn 0.0000000e+0 0.0000000e+0 -1.00000000
vn 0.92387953 0.38268343 -1.8132204e-17
vn 0.92387953 0.38268343 -1.8132204e-17
vn 0.0000000e+0 0.0000000e+0 -1.00000000
vn 0.0000000e+0 0.0000000e+0 -1.00000000
g cylinder1_copy3_joint_amotor
usemtl joint_amotor
f 1//3 17//67 32//127 16//63
f 1//5 33//1 2//10
f 2//8 18//72 17//68 1//4
f 2//9 33//1 3//14
f 3//12 19//76 18//71 2//7
f 3//13 33//1 4//18
f 4//17 20//80 19//75 3//11
f 4//15 33//1 5//19
f 5//21 21//84 20//79 4//16
f 5//22 33//1 6//26
f 6//24 22//88 21//83 5//20
f 6//25 33//1 7//30
f 7//28 23//92 22//87 6//23
f 7//29 33//1 8//34
f 8//32 24//96 23//91 7//27
f 8//33 33//1 9//38
f 9//36 25//100 24//95 8//31
f 9//37 33//1 10//42
f 10//40 26//104 25//99 9//35
f 10//41 33//1 11//46
f 11//44 27//108 26//103 10//39
f 11//45 33//1 12//50
f 12//48 28//112 27//107 11//43
f 12//49 33//1 13//53
f 13//52 29//117 28//111 12//47
f 13//54 33//1 14//58
f 14//56 30//121 29//116 13//51
f 14//57 33//1 15//62
f 15//60 31//124 30//120 14//55
f 15//61 33//1 16//66
f 16//64 32//128 31//123 15//59
f 16//65 33//1 1//6
f 17//69 34//2 32//130
f 18//73 34//2 17//70
f 19//77 34//2 18//74
f 20//81 34//2 19//78
f 21//86 34//2 20//82
f 22//89 34//2 21//85
f 23//93 34//2 22//90
f 24//97 34//2 23//94
f 25//101 34//2 24//98
f 26//105 34//2 25//102
f 27//109 34//2 26//106
f 28//113 34//2 27//110
f 29//118 34//2 28//114
f 30//119 34//2 29//115
f 31//126 34//2 30//122
f 32//129 34//2 31//125
o cylinder1_copy2
#34 vertices, 48 faces
v -1.00000000 0.25000000 -2.6020852e-18
v -1.00000000 0.23096988 9.5670858e-2
v -1.00000000 0.17677670 0.17677670
v -1.00000000 9.5670858e-2 0.23096988
v -1.00000000 8.5601748e-17 0.25000000
v -1.00000000 -9.5670858e-2 0.23096988
v -1.00000000 -0.17677670 0.17677670
v -1.00000000 -0.23096988 9.5670858e-2
v -1.00000000 -0.25000000 2.8013074e-17
v -1.00000000 -0.23096988 -9.5670858e-2
v -1.00000000 -0.17677670 -0.17677670
v -1.00000000 -9.5670858e-2 -0.23096988
v -1.00000000 2.4371430e-17 -0.25000000
v -1.00000000 9.5670858e-2 -0.23096988
v -1.00000000 0.17677670 -0.17677670
v -1.00000000 0.23096988 -9.5670858e-2
v 1.00000000 0.25000000 -2.6020852e-18
v 1.00000000 0.23096988 9.5670858e-2
v 1.00000000 0.17677670 0.17677670
v 1.00000000 9.5670858e-2 0.23096988
v 1.00000000 -3.6858888e-17 0.25000000
v 1.00000000 -9.5670858e-2 0.23096988
v 1.00000000 -0.17677670 0.17677670
v 1.00000000 -0.23096988 9.5670858e-2
v 1.00000000 -0.25000000 2.8013074e-17
v 1.00000000 -0.23096988 -9.5670858e-2
v 1.00000000 -0.17677670 -0.17677670
v 1.00000000 -9.5670858e-2 -0.23096988
v 1.00000000 -9.8089206e-17 -0.25000000
v 1.00000000 9.5670858e-2 -0.23096988
v 1.00000000 0.17677670 -0.17677670
v 1.00000000 0.23096988 -9.5670858e-2
v -1.00000000 5.4986589e-17 0.0000000e+0
v 1.00000000 -6.7474047e-17 0.0000000e+0
vn -1.00000000 0.0000000e+0 0.0000000e+0
vn 1.00000000 0.0000000e+0 0.0000000e+0
vn 7.2528814e-17 1.00000000 -1.4149670e-16
vn 7.2528814e-17 1.00000000 -1.4149670e-16
vn -1.00000000 0.0000000e+0 0.0000000e+0
vn -1.00000000 0.0000000e+0 0.0000000e+0
vn 5.2130085e-17 0.92387953 0.38268343
vn 5.2130085e-17 0.92387953 0.38268343
vn -1.00000000 0.0000000e+0 0.0000000e+0
vn -1.00000000 0.0000000e+0 0.0000000e+0
vn 3.3997882e-17 0.70710678 0.70710678
vn 3.3997882e-17 0.70710678 0.70710678
vn -1.00000000 0.0000000e+0 0.0000000e+0
vn -1.00000000 0.0000000e+0 0.0000000e+0
vn -1.00000000 0.0000000e+0 0.0000000e+0
vn 1.9410662e-17 0.38268343 0.92387953
vn 1.9410662e-17 0.38268343 0.92387953
vn -1.00000000 0.0000000e+0 0.0000000e+0
vn -1.00000000 0.0000000e+0 0.0000000e+0
vn -1.3811967e-19 -1.4149670e-17 1.00000000
vn -1.3811967e-19 -1.4149670e-17 1.00000000
vn -1.00000000 0.0000000e+0 0.0000000e+0
vn -2.4081833e-17 -0.38268343 0.92387953
vn -2.4081833e-17 -0.38268343 0.92387953
vn -1.00000000 0.0000000e+0 0.0000000e+0
vn -1.00000000 0.0000000e+0 0.0000000e+0
vn -3.6264407e-17 -0.70710678 0.70710678
vn -3.6264407e-17 -0.70710678 0.70710678
vn -1.00000000 0.0000000e+0 0.0000000e+0
vn -1.00000000 0.0000000e+0 0.0000000e+0
vn -4.9863560e-17 -0.92387953 0.38268343
vn -4.9863560e-17 -0.92387953 0.38268343
vn -1.00000000 0.0000000e+0 0.0000000e+0
vn -1.00000000 0.0000000e+0 0.0000000e+0
vn -6.7995763e-17 -1.00000000 1.2734703e-16
vn -6.7995763e-17 -1.00000000 1.2734703e-16
vn -1.00000000 0.0000000e+0 0.0000000e+0
vn -1.00000000 0.0000000e+0 0.0000000e+0
vn -6.1196187e-17 -0.92387953 -0.38268343
vn -6.1196187e-17 -0.92387953 -0.38268343
vn -1.00000000 0.0000000e+0 0.0000000e+0
vn -1.00000000 0.0000000e+0 0.0000000e+0
vn -4.1930721e-17 -0.70710678 -0.70710678
vn -4.1930721e-17 -0.70710678 -0.70710678
vn -1.00000000 0.0000000e+0 0.0000000e+0
vn -1.00000000 0.0000000e+0 0.0000000e+0
vn -2.2987911e-17 -0.38268343 -0.92387953
vn -2.2987911e-17 -0.38268343 -0.92387953
vn -1.00000000 0.0000000e+0 0.0000000e+0
vn -1.00000000 0.0000000e+0 0.0000000e+0
vn -3.2265667e-19 -8.4898018e-17 -1.00000000
vn -3.2265667e-19 -8.4898018e-17 -1.00000000
vn -1.00000000 0.0000000e+0 0.0000000e+0
vn -1.00000000 0.0000000e+0 0.0000000e+0
vn 2.1531992e-17 0.38268343 -0.92387953
vn 2.1531992e-17 0.38268343 -0.92387953
vn -1.00000000 0.0000000e+0 0.0000000e+0
vn -1.00000000 0.0000000e+0 0.0000000e+0
vn 4.3063984e-17 0.70710678 -0.70710678
vn 4.3063984e-17 0.70710678 -0.70710678
vn -1.00000000 0.0000000e+0 0.0000000e+0
vn -1.00000000 0.0000000e+0 0.0000000e+0
vn 6.7995763e-17 0.92387953 -0.38268343
vn 6.7995763e-17 0.92387953 -0.38268343
vn -1.00000000 0.0000000e+0 0.0000000e+0
vn -1.00000000 0.0000000e+0 0.0000000e+0
vn 7.2528814e-17 1.00000000 -1.4149670e-16
vn 7.2528814e-17 1.00000000 -1.4149670e-16
vn 1.00000000 0.0000000e+0 0.0000000e+0
vn 1.00000000 0.0000000e+0 0.0000000e+0
vn 5.2130085e-17 0.92387953 0.38268343
vn 5.2130085e-17 0.92387953 0.38268343
vn 1.00000000 0.0000000e+0 0.0000000e+0
vn 1.00000000 0.0000000e+0 0.0000000e+0
vn 3.3997882e-17 0.70710678 0.70710678
vn 3.3997882e-17 0.70710678 0.70710678
vn 1.00000000 0.0000000e+0 0.0000000e+0
vn 1.00000000 0.0000000e+0 0.0000000e+0
vn 1.9410662e-17 0.38268343 0.92387953
vn 1.9410662e-17 0.38268343 0.92387953
vn 1.00000000 0.0000000e+0 0.0000000e+0
vn 1.00000000 0.0000000e+0 0.0000000e+0
vn -1.3811967e-19 -1.4149670e-17 1.00000000
vn -1.3811967e-19 -1.4149670e-17 1.00000000
vn 1.00000000 0.0000000e+0 0.0000000e+0
vn 1.00000000 0.0000000e+0 0.0000000e+0
vn -2.4081833e-17 -0.38268343 0.92387953
vn -2.4081833e-17 -0.38268343 0.92387953
vn 1.00000000 0.0000000e+0 0.0000000e+0
vn 1.00000000 0.0000000e+0 0.0000000e+0
vn -3.6264407e-17 -0.70710678 0.70710678
vn -3.6264407e-17 -0.70710678 0.70710678
vn 1.00000000 0.0000000e+0 0.0000000e+0
vn 1.00000000 0.0000000e+0 0.0000000e+0
vn -4.9863560e-17 -0.92387953 0.38268343
vn -4.9863560e-17 -0.92387953 0.38268343
vn 1.00000000 0.0000000e+0 0.0000000e+0
vn 1.00000000 0.0000000e+0 0.0000000e+0
vn -6.7995763e-17 -1.00000000 1.2734703e-16
vn -6.7995763e-17 -1.00000000 1.2734703e-16
vn 1.00000000 0.0000000e+0 0.0000000e+0
vn 1.00000000 0.0000000e+0 0.0000000e+0
vn -6.1196187e-17 -0.92387953 -0.38268343
vn -6.1196187e-17 -0.92387953 -0.38268343
vn 1.00000000 0.0000000e+0 0.0000000e+0
vn 1.00000000 0.0000000e+0 0.0000000e+0
vn -4.1930721e-17 -0.70710678 -0.70710678
vn -4.1930721e-17 -0.70710678 -0.70710678
vn 1.00000000 0.0000000e+0 0.0000000e+0
vn 1.00000000 0.0000000e+0 0.0000000e+0
vn -2.2987911e-17 -0.38268343 -0.92387953
vn -2.2987911e-17 -0.38268343 -0.92387953
vn 1.00000000 0.0000000e+0 0.0000000e+0
vn 1.00000000 0.0000000e+0 0.0000000e+0
vn 1.00000000 0.0000000e+0 0.0000000e+0
vn -3.2265667e-19 -8.4898018e-17 -1.00000000
vn -3.2265667e-19 -8.4898018e-17 -1.00000000
vn 1.00000000 0.0000000e+0 0.0000000e+0
vn 1.00000000 0.0000000e+0 0.0000000e+0
vn 2.1531992e-17 0.38268343 -0.92387953
vn 2.1531992e-17 0.38268343 -0.92387953
vn 1.00000000 0.0000000e+0 0.0000000e+0
vn 4.3063984e-17 0.70710678 -0.70710678
vn 4.3063984e-17 0.70710678 -0.70710678
vn 1.00000000 0.0000000e+0 0.0000000e+0
vn 1.00000000 0.0000000e+0 0.0000000e+0
vn 6.7995763e-17 0.92387953 -0.38268343
vn 6.7995763e-17 0.92387953 -0.38268343
vn 1.00000000 0.0000000e+0 0.0000000e+0
vn 1.00000000 0.0000000e+0 0.0000000e+0
g cylinder1_copy2_joint_amotor
usemtl joint_amotor
f 35//133 51//197 66//257 50//193
f 35//135 67//131 36//140
f 36//138 52//202 51//198 35//134
f 36//139 67//131 37//144
f 37//142 53//206 52//201 36//137
f 37//143 67//131 38//148
f 38//147 54//210 53//205 37//141
f 38//145 67//131 39//149
f 39//151 55//214 54//209 38//146
f 39//152 67//131 40//156
f 40//154 56//218 55//213 39//150
f 40//155 67//131 41//160
f 41//158 57//222 56//217 40//153
f 41//159 67//131 42//164
f 42//162 58//226 57//221 41//157
f 42//163 67//131 43//168
f 43//166 59//230 58//225 42//161
f 43//167 67//131 44//172
f 44//170 60//234 59//229 43//165
f 44//171 67//131 45//176
f 45//174 61//238 60//233 44//169
f 45//175 67//131 46//180
f 46//178 62//242 61//237 45//173
f 46//179 67//131 47//183
f 47//182 63//247 62//241 46//177
f 47//184 67//131 48//188
f 48//186 64//251 63//246 47//181
f 48//187 67//131 49//192
f 49//190 65//254 64//250 48//185
f 49//191 67//131 50//196
f 50//194 66//258 65//253 49//189
f 50//195 67//131 35//136
f 51//199 68//132 66//260
f 52//203 68//132 51//200
f 53//207 68//132 52//204
f 54//211 68//132 53//208
f 55//216 68//132 54//212
f 56//219 68//132 55//215
f 57//223 68//132 56//220
f 58//227 68//132 57//224
f 59//231 68//132 58//228
f 60//235 68//132 59//232
f 61//239 68//132 60//236
f 62//243 68//132 61//240
f 63//248 68//132 62//244
f 64//249 68//132 63//245
f 65//256 68//132 64//252
f 66//259 68//132 65//255
o cylinder1
#34 vertices, 48 faces
v 0.25000000 1.00000000 -2.6020852e-18
v 0.23096988 1.00000000 9.5670858e-2
v 0.17677670 1.00000000 0.17677670
v 9.5670858e-2 1.00000000 0.23096988
v -1.8519528e-17 1.00000000 0.25000000
v -9.5670858e-2 1.00000000 0.23096988
v -0.17677670 1.00000000 0.17677670
v -0.23096988 1.00000000 9.5670858e-2
v -0.25000000 1.00000000 2.8013074e-17
v -0.23096988 1.00000000 -9.5670858e-2
v -0.17677670 1.00000000 -0.17677670
v -9.5670858e-2 1.00000000 -0.23096988
v -7.9749846e-17 1.00000000 -0.25000000
v 9.5670858e-2 1.00000000 -0.23096988
v 0.17677670 1.00000000 -0.17677670
v 0.23096988 1.00000000 -9.5670858e-2
v 0.25000000 -1.00000000 -2.6020852e-18
v 0.23096988 -1.00000000 9.5670858e-2
v 0.17677670 -1.00000000 0.17677670
v 9.5670858e-2 -1.00000000 0.23096988
v -1.8519528e-17 -1.00000000 0.25000000
v -9.5670858e-2 -1.00000000 0.23096988
v -0.17677670 -1.00000000 0.17677670
v -0.23096988 -1.00000000 9.5670858e-2
v -0.25000000 -1.00000000 2.8013074e-17
v -0.23096988 -1.00000000 -9.5670858e-2
v -0.17677670 -1.00000000 -0.17677670
v -9.5670858e-2 -1.00000000 -0.23096988
v -7.9749846e-17 -1.00000000 -0.25000000
v 9.5670858e-2 -1.00000000 -0.23096988
v 0.17677670 -1.00000000 -0.17677670
v 0.23096988 -1.00000000 -9.5670858e-2
v -4.9134687e-17 1.00000000 0.0000000e+0
v -4.9134687e-17 -1.00000000 0.0000000e+0
vn 0.0000000e+0 1.00000000 -2.4651903e-31
vn 0.0000000e+0 -1.00000000 -2.4651903e-31
vn 1.00000000 -6.4698366e-20 -2.1224505e-16
vn 1.00000000 -6.4698366e-20 -2.1224505e-16
vn 0.0000000e+0 1.00000000 -1.9721523e-30
vn 0.0000000e+0 1.00000000 -1.9721523e-30
vn 0.92387953 0.0000000e+0 0.38268343
vn 0.92387953 0.0000000e+0 0.38268343
vn 0.0000000e+0 1.00000000 -1.1604610e-15
vn 0.0000000e+0 1.00000000 -1.1604610e-15
vn 0.70710678 4.5330509e-18 0.70710678
vn 0.70710678 4.5330509e-18 0.70710678
vn 0.0000000e+0 1.00000000 0.0000000e+0
vn 0.0000000e+0 1.00000000 0.0000000e+0
vn 0.0000000e+0 1.00000000 5.8023051e-16
vn 0.38268343 4.5330509e-18 0.92387953
vn 0.38268343 4.5330509e-18 0.92387953
vn 0.0000000e+0 1.00000000 5.8023051e-16
vn 0.0000000e+0 1.00000000 0.0000000e+0
vn 0.0000000e+0 0.0000000e+0 1.00000000
vn 0.0000000e+0 0.0000000e+0 1.00000000
vn 0.0000000e+0 1.00000000 0.0000000e+0
vn -0.38268343 -2.2665254e-18 0.92387953
vn -0.38268343 -2.2665254e-18 0.92387953
vn 0.0000000e+0 1.00000000 -5.8023051e-16
vn 0.0000000e+0 1.00000000 -5.8023051e-16
vn -0.70710678 -2.2665254e-18 0.70710678
vn -0.70710678 -2.2665254e-18 0.70710678
vn 0.0000000e+0 1.00000000 0.0000000e+0
vn 0.0000000e+0 1.00000000 0.0000000e+0
vn -0.92387953 -1.2988699e-19 0.38268343
vn -0.92387953 -1.2988699e-19 0.38268343
vn 0.0000000e+0 1.00000000 0.0000000e+0
vn 0.0000000e+0 1.00000000 0.0000000e+0
vn -1.00000000 -1.2988699e-19 1.2734703e-16
vn -1.00000000 -1.2988699e-19 1.2734703e-16
vn 0.0000000e+0 1.00000000 0.0000000e+0
vn 0.0000000e+0 1.00000000 0.0000000e+0
vn -0.92387953 0.0000000e+0 -0.38268343
vn -0.92387953 0.0000000e+0 -0.38268343
vn 0.0000000e+0 1.00000000 0.0000000e+0
vn 0.0000000e+0 1.00000000 0.0000000e+0
vn -0.70710678 -4.5330509e-18 -0.70710678
vn -0.70710678 -4.5330509e-18 -0.70710678
vn 0.0000000e+0 1.00000000 0.0000000e+0
vn 0.0000000e+0 1.00000000 0.0000000e+0
vn -0.38268343 -4.5330509e-18 -0.92387953
vn -0.38268343 -4.5330509e-18 -0.92387953
vn 0.0000000e+0 1.00000000 0.0000000e+0
vn 0.0000000e+0 1.00000000 0.0000000e+0
vn -1.8394571e-16 0.0000000e+0 -1.00000000
vn -1.8394571e-16 0.0000000e+0 -1.00000000
vn 0.0000000e+0 1.00000000 0.0000000e+0
vn 0.0000000e+0 1.00000000 0.0000000e+0
vn 0.38268343 0.0000000e+0 -0.92387953
vn 0.38268343 0.0000000e+0 -0.92387953
vn 0.0000000e+0 1.00000000 0.0000000e+0
vn 0.0000000e+0 1.00000000 0.0000000e+0
vn 0.70710678 -1.1332627e-18 -0.70710678
vn 0.70710678 -1.1332627e-18 -0.70710678
vn 0.0000000e+0 1.00000000 0.0000000e+0
vn 0.0000000e+0 1.00000000 0.0000000e+0
vn 0.92387953 -1.1979611e-18 -0.38268343
vn 0.92387953 -1.1979611e-18 -0.38268343
vn 0.0000000e+0 1.00000000 1.1604610e-15
vn 0.0000000e+0 1.00000000 1.1604610e-15
vn 1.00000000 -6.4698366e-20 -2.1224505e-16
vn 1.00000000 -6.4698366e-20 -2.1224505e-16
vn 0.0000000e+0 -1.00000000 -1.9721523e-30
vn 0.0000000e+0 -1.00000000 -1.9721523e-30
vn 0.92387953 0.0000000e+0 0.38268343
vn 0.92387953 0.0000000e+0 0.38268343
vn 0.0000000e+0 -1.00000000 -1.1604610e-15
vn 0.0000000e+0 -1.00000000 -1.1604610e-15
vn 0.70710678 4.5330509e-18 0.70710678
vn 0.70710678 4.5330509e-18 0.70710678
vn 0.0000000e+0 -1.00000000 0.0000000e+0
vn 0.0000000e+0 -1.00000000 0.0000000e+0
vn 0.38268343 4.5330509e-18 0.92387953
vn 0.38268343 4.5330509e-18 0.92387953
vn 0.0000000e+0 -1.00000000 5.8023051e-16
vn 0.0000000e+0 -1.00000000 5.8023051e-16
vn 0.0000000e+0 0.0000000e+0 1.00000000
vn 0.0000000e+0 0.0000000e+0 1.00000000
vn 0.0000000e+0 -1.00000000 0.0000000e+0
vn 0.0000000e+0 -1.00000000 0.0000000e+0
vn -0.38268343 -2.2665254e-18 0.92387953
vn -0.38268343 -2.2665254e-18 0.92387953
vn 0.0000000e+0 -1.00000000 -5.8023051e-16
vn 0.0000000e+0 -1.00000000 -5.8023051e-16
vn -0.70710678 -2.2665254e-18 0.70710678
vn -0.70710678 -2.2665254e-18 0.70710678
vn 0.0000000e+0 -1.00000000 0.0000000e+0
vn 0.0000000e+0 -1.00000000 0.0000000e+0
vn -0.92387953 -1.2988699e-19 0.38268343
vn -0.92387953 -1.2988699e-19 0.38268343
vn 0.0000000e+0 -1.00000000 0.0000000e+0
vn 0.0000000e+0 -1.00000000 0.0000000e+0
vn -1.00000000 -1.2988699e-19 1.2734703e-16
vn -1.00000000 -1.2988699e-19 1.2734703e-16
vn 0.0000000e+0 -1.00000000 0.0000000e+0
vn 0.0000000e+0 -1.00000000 0.0000000e+0
vn -0.92387953 0.0000000e+0 -0.38268343
vn -0.92387953 0.0000000e+0 -0.38268343
vn 0.0000000e+0 -1.00000000 0.0000000e+0
vn 0.0000000e+0 -1.00000000 0.0000000e+0
vn -0.70710678 -4.5330509e-18 -0.70710678
vn -0.70710678 -4.5330509e-18 -0.70710678
vn 0.0000000e+0 -1.00000000 0.0000000e+0
vn 0.0000000e+0 -1.00000000 0.0000000e+0
vn -0.38268343 -4.5330509e-18 -0.92387953
vn -0.38268343 -4.5330509e-18 -0.92387953
vn 0.0000000e+0 -1.00000000 0.0000000e+0
vn 0.0000000e+0 -1.00000000 0.0000000e+0
vn 0.0000000e+0 -1.00000000 0.0000000e+0
vn -1.8394571e-16 0.0000000e+0 -1.00000000
vn -1.8394571e-16 0.0000000e+0 -1.00000000
vn 0.0000000e+0 -1.00000000 0.0000000e+0
vn 0.0000000e+0 -1.00000000 0.0000000e+0
vn 0.38268343 0.0000000e+0 -0.92387953
vn 0.38268343 0.0000000e+0 -0.92387953
vn 0.0000000e+0 -1.00000000 0.0000000e+0
vn 0.70710678 -1.1332627e-18 -0.70710678
vn 0.70710678 -1.1332627e-18 -0.70710678
vn 0.0000000e+0 -1.00000000 0.0000000e+0
vn 0.0000000e+0 -1.00000000 0.0000000e+0
vn 0.92387953 -1.1979611e-18 -0.38268343
vn 0.92387953 -1.1979611e-18 -0.38268343
vn 0.0000000e+0 -1.00000000 1.1604610e-15
vn 0.0000000e+0 -1.00000000 1.1604610e-15
g cylinder1_joint_amotor
usemtl joint_amotor
f 69//263 85//327 100//387 84//323
f 69//265 101//261 70//270
f 70//268 86//332 85//328 69//264
f 70//269 101//261 71//274
f 71//272 87//336 86//331 70//267
f 71//273 101//261 72//278
f 72//277 88//340 87//335 71//271
f 72//275 101//261 73//279
f 73//281 89//344 88//339 72//276
f 73//282 101//261 74//286
f 74//284 90//348 89//343 73//280
f 74//285 101//261 75//290
f 75//288 91//352 90//347 74//283
f 75//289 101//261 76//294
f 76//292 92//356 91//351 75//287
f 76//293 101//261 77//298
f 77//296 93//360 92//355 76//291
f 77//297 101//261 78//302
f 78//300 94//364 93//359 77//295
f 78//301 101//261 79//306
f 79//304 95//368 94//363 78//299
f 79//305 101//261 80//310
f 80//308 96//372 95//367 79//303
f 80//309 101//261 81//313
f 81//312 97//377 96//371 80//307
f 81//314 101//261 82//318
f 82//316 98//381 97//376 81//311
f 82//317 101//261 83//322
f 83//320 99//384 98//380 82//315
f 83//321 101//261 84//326
f 84//324 100//388 99//383 83//319
f 84//325 101//261 69//266
f 85//329 102//262 100//390
f 86//333 102//262 85//330
f 87//337 102//262 86//334
f 88//341 102//262 87//338
f 89//346 102//262 88//342
f 90//349 102//262 89//345
f 91//353 102//262 90//350
f 92//357 102//262 91//354
f 93//361 102//262 92//358
f 94//365 102//262 93//362
f 95//369 102//262 94//366
f 96//373 102//262 95//370
f 97//378 102//262 96//374
f 98//379 102//262 97//375
f 99//386 102//262 98//382
f 100//389 102//262 99//385
