# Exported from Wings 3D 0.98.34
mtllib joint_hinge2.mtl
o cylinder1_copy2
#33 vertices, 33 faces
v 0.0000000e+0 6.2500000e-2 -1.2131206e-17
v 0.0000000e+0 5.7742471e-2 2.3917715e-2
v 0.0000000e+0 4.4194174e-2 4.4194174e-2
v 0.0000000e+0 2.3917715e-2 5.7742471e-2
v 0.0000000e+0 2.1902154e-17 6.2500000e-2
v 0.0000000e+0 -2.3917715e-2 5.7742471e-2
v 0.0000000e+0 -4.4194174e-2 4.4194174e-2
v 0.0000000e+0 -5.7742471e-2 2.3917715e-2
v 0.0000000e+0 -6.2500000e-2 1.8483953e-17
v 0.0000000e+0 -5.7742471e-2 -2.3917715e-2
v 0.0000000e+0 -4.4194174e-2 -4.4194174e-2
v 0.0000000e+0 -2.3917715e-2 -5.7742471e-2
v 0.0000000e+0 1.2334917e-17 -6.2500000e-2
v 0.0000000e+0 2.3917715e-2 -5.7742471e-2
v 0.0000000e+0 4.4194174e-2 -4.4194174e-2
v 0.0000000e+0 5.7742471e-2 -2.3917715e-2
v 0.25000000 6.2500000e-2 -1.2131206e-17
v 0.25000000 5.7742471e-2 2.3917715e-2
v 0.25000000 4.4194174e-2 4.4194174e-2
v 0.25000000 2.3917715e-2 5.7742471e-2
v 0.25000000 -8.7130044e-18 6.2500000e-2
v 0.25000000 -2.3917715e-2 5.7742471e-2
v 0.25000000 -4.4194174e-2 4.4194174e-2
v 0.25000000 -5.7742471e-2 2.3917715e-2
v 0.25000000 -6.2500000e-2 1.8483953e-17
v 0.25000000 -5.7742471e-2 -2.3917715e-2
v 0.25000000 -4.4194174e-2 -4.4194174e-2
v 0.25000000 -2.3917715e-2 -5.7742471e-2
v 0.25000000 -1.8280242e-17 -6.2500000e-2
v 0.25000000 2.3917715e-2 -5.7742471e-2
v 0.25000000 4.4194174e-2 -4.4194174e-2
v 0.25000000 5.7742471e-2 -2.3917715e-2
v 0.25000000 -6.9388939e-18 3.1763736e-18
vn 1.00000000 -7.3955710e-32 0.0000000e+0
vn -1.00000000 0.0000000e+0 0.0000000e+0
vn 9.9727120e-17 1.00000000 -1.4149670e-16
vn 9.9727120e-17 1.00000000 -1.4149670e-16
vn -1.00000000 0.0000000e+0 0.0000000e+0
vn 9.5194069e-17 0.92387953 0.38268343
vn 9.5194069e-17 0.92387953 0.38268343
vn -1.00000000 0.0000000e+0 0.0000000e+0
vn 6.7995763e-17 0.70710678 0.70710678
vn 6.7995763e-17 0.70710678 0.70710678
vn -1.00000000 0.0000000e+0 0.0000000e+0
vn 3.8921122e-17 0.38268343 0.92387953
vn 3.8921122e-17 0.38268343 0.92387953
vn -1.00000000 0.0000000e+0 0.0000000e+0
vn 3.9018986e-19 3.1129273e-16 1.00000000
vn 3.9018986e-19 3.1129273e-16 1.00000000
vn -1.00000000 0.0000000e+0 0.0000000e+0
vn -4.3063984e-17 -0.38268343 0.92387953
vn -4.3063984e-17 -0.38268343 0.92387953
vn -1.00000000 0.0000000e+0 0.0000000e+0
vn -8.6127967e-17 -0.70710678 0.70710678
vn -8.6127967e-17 -0.70710678 0.70710678
vn -1.00000000 0.0000000e+0 0.0000000e+0
vn -1.1785932e-16 -0.92387953 0.38268343
vn -1.1785932e-16 -0.92387953 0.38268343
vn -1.00000000 0.0000000e+0 0.0000000e+0
vn -1.3599153e-16 -1.00000000 2.8299339e-16
vn -1.3599153e-16 -1.00000000 2.8299339e-16
vn -1.00000000 0.0000000e+0 0.0000000e+0
vn -1.2692543e-16 -0.92387953 -0.38268343
vn -1.2692543e-16 -0.92387953 -0.38268343
vn -1.00000000 0.0000000e+0 0.0000000e+0
vn -8.8394492e-17 -0.70710678 -0.70710678
vn -8.8394492e-17 -0.70710678 -0.70710678
vn -1.00000000 0.0000000e+0 0.0000000e+0
vn -4.4950920e-17 -0.38268343 -0.92387953
vn -4.4950920e-17 -0.38268343 -0.92387953
vn -1.00000000 0.0000000e+0 0.0000000e+0
vn 3.7958921e-19 -4.2449009e-16 -1.00000000
vn 3.7958921e-19 -4.2449009e-16 -1.00000000
vn -1.00000000 0.0000000e+0 0.0000000e+0
vn 4.3063984e-17 0.38268343 -0.92387953
vn 4.3063984e-17 0.38268343 -0.92387953
vn -1.00000000 0.0000000e+0 0.0000000e+0
vn 8.6127967e-17 0.70710678 -0.70710678
vn 8.6127967e-17 0.70710678 -0.70710678
vn -1.00000000 0.0000000e+0 0.0000000e+0
vn 9.9727120e-17 0.92387953 -0.38268343
vn 9.9727120e-17 0.92387953 -0.38268343
vn 1.00000000 0.0000000e+0 0.0000000e+0
vn 9.9727120e-17 1.00000000 -1.4149670e-16
vn 9.9727120e-17 1.00000000 -1.4149670e-16
vn 1.00000000 0.0000000e+0 0.0000000e+0
vn 1.00000000 5.8023051e-16 0.0000000e+0
vn 9.5194069e-17 0.92387953 0.38268343
vn 9.5194069e-17 0.92387953 0.38268343
vn 1.00000000 5.8023051e-16 0.0000000e+0
vn 6.7995763e-17 0.70710678 0.70710678
vn 6.7995763e-17 0.70710678 0.70710678
vn 1.00000000 5.8023051e-16 0.0000000e+0
vn 1.00000000 5.8023051e-16 0.0000000e+0
vn 3.8921122e-17 0.38268343 0.92387953
vn 3.8921122e-17 0.38268343 0.92387953
vn 1.00000000 0.0000000e+0 0.0000000e+0
vn 1.00000000 0.0000000e+0 0.0000000e+0
vn 3.9018986e-19 3.1129273e-16 1.00000000
vn 3.9018986e-19 3.1129273e-16 1.00000000
vn 1.00000000 0.0000000e+0 0.0000000e+0
vn 1.00000000 0.0000000e+0 0.0000000e+0
vn -4.3063984e-17 -0.38268343 0.92387953
vn -4.3063984e-17 -0.38268343 0.92387953
vn 1.00000000 0.0000000e+0 0.0000000e+0
vn 1.00000000 0.0000000e+0 0.0000000e+0
vn -8.6127967e-17 -0.70710678 0.70710678
vn -8.6127967e-17 -0.70710678 0.70710678
vn 1.00000000 -5.8023051e-16 0.0000000e+0
vn 1.00000000 -5.8023051e-16 0.0000000e+0
vn -1.1785932e-16 -0.92387953 0.38268343
vn -1.1785932e-16 -0.92387953 0.38268343
vn 1.00000000 -5.8023051e-16 0.0000000e+0
vn 1.00000000 -5.8023051e-16 0.0000000e+0
vn -1.3599153e-16 -1.00000000 2.8299339e-16
vn -1.3599153e-16 -1.00000000 2.8299339e-16
vn 1.00000000 0.0000000e+0 0.0000000e+0
vn 1.00000000 0.0000000e+0 0.0000000e+0
vn -1.2692543e-16 -0.92387953 -0.38268343
vn -1.2692543e-16 -0.92387953 -0.38268343
vn 1.00000000 5.8023051e-16 0.0000000e+0
vn 1.00000000 5.8023051e-16 0.0000000e+0
vn -8.8394492e-17 -0.70710678 -0.70710678
vn -8.8394492e-17 -0.70710678 -0.70710678
vn 1.00000000 5.8023051e-16 0.0000000e+0
vn 1.00000000 5.8023051e-16 0.0000000e+0
vn -4.4950920e-17 -0.38268343 -0.92387953
vn -4.4950920e-17 -0.38268343 -0.92387953
vn 1.00000000 0.0000000e+0 0.0000000e+0
vn 1.00000000 0.0000000e+0 0.0000000e+0
vn 3.7958921e-19 -4.2449009e-16 -1.00000000
vn 3.7958921e-19 -4.2449009e-16 -1.00000000
vn 1.00000000 0.0000000e+0 0.0000000e+0
vn 1.00000000 0.0000000e+0 0.0000000e+0
vn 4.3063984e-17 0.38268343 -0.92387953
vn 4.3063984e-17 0.38268343 -0.92387953
vn 1.00000000 0.0000000e+0 0.0000000e+0
vn 1.00000000 0.0000000e+0 0.0000000e+0
vn 8.6127967e-17 0.70710678 -0.70710678
vn 8.6127967e-17 0.70710678 -0.70710678
vn 1.00000000 -5.8023051e-16 0.0000000e+0
vn 1.00000000 -5.8023051e-16 0.0000000e+0
vn 9.9727120e-17 0.92387953 -0.38268343
vn 9.9727120e-17 0.92387953 -0.38268343
vn 1.00000000 -5.8023051e-16 0.0000000e+0
vn 1.00000000 -5.8023051e-16 0.0000000e+0
g cylinder1_copy2_joint_hinge2
usemtl joint_hinge2
f 1//2 16//47 15//44 14//41 13//38 12//35 11//32 10//29 9//26 8//23 7//20 6//17 5//14 4//11 3//8 2//5
f 1//3 17//51 32//110 16//48
f 2//7 18//56 17//52 1//4
f 3//10 19//59 18//55 2//6
f 4//13 20//63 19//58 3//9
f 5//16 21//67 20//62 4//12
f 6//19 22//71 21//66 5//15
f 7//22 23//75 22//70 6//18
f 8//25 24//79 23//74 7//21
f 9//28 25//83 24//78 8//24
f 10//31 26//87 25//82 9//27
f 11//34 27//91 26//86 10//30
f 12//37 28//95 27//90 11//33
f 13//40 29//99 28//94 12//36
f 14//43 30//103 29//98 13//39
f 15//46 31//107 30//102 14//42
f 16//49 32//111 31//106 15//45
f 17//53 33//1 32//113
f 18//54 33//1 17//50
f 19//60 33//1 18//57
f 20//64 33//1 19//61
f 21//68 33//1 20//65
f 22//72 33//1 21//69
f 23//76 33//1 22//73
f 24//80 33//1 23//77
f 25//85 33//1 24//81
f 26//88 33//1 25//84
f 27//92 33//1 26//89
f 28//96 33//1 27//93
f 29//100 33//1 28//97
f 30//104 33//1 29//101
f 31//108 33//1 30//105
f 32//112 33//1 31//109
o cylinder1
#34 vertices, 48 faces
v 6.2500000e-2 0.25000000 -1.2627766e-18
v 5.7742471e-2 0.25000000 2.3917715e-2
v 4.4194174e-2 0.25000000 4.4194174e-2
v 2.3917715e-2 0.25000000 5.7742471e-2
v -3.6798101e-17 0.25000000 6.2500000e-2
v -2.3917715e-2 0.25000000 5.7742471e-2
v -4.4194174e-2 0.25000000 4.4194174e-2
v -5.7742471e-2 0.25000000 2.3917715e-2
v -6.2500000e-2 0.25000000 6.3910131e-18
v -5.7742471e-2 0.25000000 -2.3917715e-2
v -4.4194174e-2 0.25000000 -4.4194174e-2
v -2.3917715e-2 0.25000000 -5.7742471e-2
v -5.2105680e-17 0.25000000 -6.2500000e-2
v 2.3917715e-2 0.25000000 -5.7742471e-2
v 4.4194174e-2 0.25000000 -4.4194174e-2
v 5.7742471e-2 0.25000000 -2.3917715e-2
v 6.2500000e-2 -0.25000000 -1.2627766e-18
v 5.7742471e-2 -0.25000000 2.3917715e-2
v 4.4194174e-2 -0.25000000 4.4194174e-2
v 2.3917715e-2 -0.25000000 5.7742471e-2
v -3.6798101e-17 -0.25000000 6.2500000e-2
v -2.3917715e-2 -0.25000000 5.7742471e-2
v -4.4194174e-2 -0.25000000 4.4194174e-2
v -5.7742471e-2 -0.25000000 2.3917715e-2
v -6.2500000e-2 -0.25000000 6.3910131e-18
v -5.7742471e-2 -0.25000000 -2.3917715e-2
v -4.4194174e-2 -0.25000000 -4.4194174e-2
v -2.3917715e-2 -0.25000000 -5.7742471e-2
v -5.2105680e-17 -0.25000000 -6.2500000e-2
v 2.3917715e-2 -0.25000000 -5.7742471e-2
v 4.4194174e-2 -0.25000000 -4.4194174e-2
v 5.7742471e-2 -0.25000000 -2.3917715e-2
v -4.4451890e-17 0.25000000 -6.1225534e-19
v -4.4451890e-17 -0.25000000 -6.1225534e-19
vn 0.0000000e+0 1.00000000 3.6977855e-32
vn 0.0000000e+0 -1.00000000 3.6977855e-32
vn 1.00000000 -1.2559095e-19 -1.4149670e-16
vn 1.00000000 -1.2559095e-19 -1.4149670e-16
vn 0.0000000e+0 1.00000000 0.0000000e+0
vn 0.0000000e+0 1.00000000 0.0000000e+0
vn 0.92387953 0.0000000e+0 0.38268343
vn 0.92387953 0.0000000e+0 0.38268343
vn 0.0000000e+0 1.00000000 0.0000000e+0
vn 0.0000000e+0 1.00000000 0.0000000e+0
vn 0.70710678 0.0000000e+0 0.70710678
vn 0.70710678 0.0000000e+0 0.70710678
vn 0.0000000e+0 1.00000000 -5.8023051e-16
vn 0.0000000e+0 1.00000000 -5.8023051e-16
vn 0.0000000e+0 1.00000000 -5.8023051e-16
vn 0.38268343 0.0000000e+0 0.92387953
vn 0.38268343 0.0000000e+0 0.92387953
vn 0.0000000e+0 1.00000000 -5.8023051e-16
vn 0.0000000e+0 1.00000000 0.0000000e+0
vn -1.4149670e-17 0.0000000e+0 1.00000000
vn -1.4149670e-17 0.0000000e+0 1.00000000
vn 0.0000000e+0 1.00000000 0.0000000e+0
vn -0.38268343 0.0000000e+0 0.92387953
vn -0.38268343 0.0000000e+0 0.92387953
vn 0.0000000e+0 1.00000000 5.8023051e-16
vn 0.0000000e+0 1.00000000 5.8023051e-16
vn -0.70710678 0.0000000e+0 0.70710678
vn -0.70710678 0.0000000e+0 0.70710678
vn 0.0000000e+0 1.00000000 5.8023051e-16
vn 0.0000000e+0 1.00000000 5.8023051e-16
vn -0.92387953 -6.8994407e-20 0.38268343
vn -0.92387953 -6.8994407e-20 0.38268343
vn 0.0000000e+0 1.00000000 0.0000000e+0
vn 0.0000000e+0 1.00000000 0.0000000e+0
vn -1.00000000 -6.8994407e-20 7.0748349e-17
vn -1.00000000 -6.8994407e-20 7.0748349e-17
vn 0.0000000e+0 1.00000000 0.0000000e+0
vn 0.0000000e+0 1.00000000 0.0000000e+0
vn -0.92387953 0.0000000e+0 -0.38268343
vn -0.92387953 0.0000000e+0 -0.38268343
vn 0.0000000e+0 1.00000000 0.0000000e+0
vn 0.0000000e+0 1.00000000 0.0000000e+0
vn -0.70710678 0.0000000e+0 -0.70710678
vn -0.70710678 0.0000000e+0 -0.70710678
vn 0.0000000e+0 1.00000000 -5.8023051e-16
vn 0.0000000e+0 1.00000000 -5.8023051e-16
vn -0.38268343 0.0000000e+0 -0.92387953
vn -0.38268343 0.0000000e+0 -0.92387953
vn 0.0000000e+0 1.00000000 -5.8023051e-16
vn 0.0000000e+0 1.00000000 -5.8023051e-16
vn -1.8394571e-16 0.0000000e+0 -1.00000000
vn -1.8394571e-16 0.0000000e+0 -1.00000000
vn 0.0000000e+0 1.00000000 0.0000000e+0
vn 0.0000000e+0 1.00000000 0.0000000e+0
vn 0.38268343 2.2665254e-18 -0.92387953
vn 0.38268343 2.2665254e-18 -0.92387953
vn 0.0000000e+0 1.00000000 5.8023051e-16
vn 0.0000000e+0 1.00000000 5.8023051e-16
vn 0.70710678 1.1332627e-18 -0.70710678
vn 0.70710678 1.1332627e-18 -0.70710678
vn 0.0000000e+0 1.00000000 5.8023051e-16
vn 0.0000000e+0 1.00000000 5.8023051e-16
vn 0.92387953 -1.2588537e-18 -0.38268343
vn 0.92387953 -1.2588537e-18 -0.38268343
vn 0.0000000e+0 1.00000000 0.0000000e+0
vn 0.0000000e+0 1.00000000 0.0000000e+0
vn 1.00000000 -1.2559095e-19 -1.4149670e-16
vn 1.00000000 -1.2559095e-19 -1.4149670e-16
vn 0.0000000e+0 -1.00000000 0.0000000e+0
vn 0.0000000e+0 -1.00000000 0.0000000e+0
vn 0.92387953 0.0000000e+0 0.38268343
vn 0.92387953 0.0000000e+0 0.38268343
vn 0.0000000e+0 -1.00000000 0.0000000e+0
vn 0.0000000e+0 -1.00000000 0.0000000e+0
vn 0.70710678 0.0000000e+0 0.70710678
vn 0.70710678 0.0000000e+0 0.70710678
vn 0.0000000e+0 -1.00000000 -5.8023051e-16
vn 0.0000000e+0 -1.00000000 -5.8023051e-16
vn 0.38268343 0.0000000e+0 0.92387953
vn 0.38268343 0.0000000e+0 0.92387953
vn 0.0000000e+0 -1.00000000 -5.8023051e-16
vn 0.0000000e+0 -1.00000000 -5.8023051e-16
vn -1.4149670e-17 0.0000000e+0 1.00000000
vn -1.4149670e-17 0.0000000e+0 1.00000000
vn 0.0000000e+0 -1.00000000 0.0000000e+0
vn 0.0000000e+0 -1.00000000 0.0000000e+0
vn -0.38268343 0.0000000e+0 0.92387953
vn -0.38268343 0.0000000e+0 0.92387953
vn 0.0000000e+0 -1.00000000 5.8023051e-16
vn 0.0000000e+0 -1.00000000 5.8023051e-16
vn -0.70710678 0.0000000e+0 0.70710678
vn -0.70710678 0.0000000e+0 0.70710678
vn 0.0000000e+0 -1.00000000 5.8023051e-16
vn 0.0000000e+0 -1.00000000 5.8023051e-16
vn -0.92387953 -6.8994407e-20 0.38268343
vn -0.92387953 -6.8994407e-20 0.38268343
vn 0.0000000e+0 -1.00000000 0.0000000e+0
vn 0.0000000e+0 -1.00000000 0.0000000e+0
vn -1.00000000 -6.8994407e-20 7.0748349e-17
vn -1.00000000 -6.8994407e-20 7.0748349e-17
vn 0.0000000e+0 -1.00000000 0.0000000e+0
vn 0.0000000e+0 -1.00000000 0.0000000e+0
vn -0.92387953 0.0000000e+0 -0.38268343
vn -0.92387953 0.0000000e+0 -0.38268343
vn 0.0000000e+0 -1.00000000 0.0000000e+0
vn 0.0000000e+0 -1.00000000 0.0000000e+0
vn -0.70710678 0.0000000e+0 -0.70710678
vn -0.70710678 0.0000000e+0 -0.70710678
vn 0.0000000e+0 -1.00000000 -5.8023051e-16
vn 0.0000000e+0 -1.00000000 -5.8023051e-16
vn -0.38268343 0.0000000e+0 -0.92387953
vn -0.38268343 0.0000000e+0 -0.92387953
vn 0.0000000e+0 -1.00000000 -5.8023051e-16
vn 0.0000000e+0 -1.00000000 -5.8023051e-16
vn 0.0000000e+0 -1.00000000 0.0000000e+0
vn -1.8394571e-16 0.0000000e+0 -1.00000000
vn -1.8394571e-16 0.0000000e+0 -1.00000000
vn 0.0000000e+0 -1.00000000 0.0000000e+0
vn 0.0000000e+0 -1.00000000 5.8023051e-16
vn 0.38268343 2.2665254e-18 -0.92387953
vn 0.38268343 2.2665254e-18 -0.92387953
vn 0.0000000e+0 -1.00000000 5.8023051e-16
vn 0.70710678 1.1332627e-18 -0.70710678
vn 0.70710678 1.1332627e-18 -0.70710678
vn 0.0000000e+0 -1.00000000 5.8023051e-16
vn 0.0000000e+0 -1.00000000 5.8023051e-16
vn 0.92387953 -1.2588537e-18 -0.38268343
vn 0.92387953 -1.2588537e-18 -0.38268343
vn 0.0000000e+0 -1.00000000 0.0000000e+0
vn 0.0000000e+0 -1.00000000 0.0000000e+0
g cylinder1_joint_hinge2
usemtl joint_hinge2
f 34//116 50//180 65//240 49//176
f 34//118 66//114 35//123
f 35//121 51//185 50//181 34//117
f 35//122 66//114 36//127
f 36//125 52//189 51//184 35//120
f 36//126 66//114 37//131
f 37//130 53//193 52//188 36//124
f 37//128 66//114 38//132
f 38//134 54//197 53//192 37//129
f 38//135 66//114 39//139
f 39//137 55//201 54//196 38//133
f 39//138 66//114 40//143
f 40//141 56//205 55//200 39//136
f 40//142 66//114 41//147
f 41//145 57//209 56//204 40//140
f 41//146 66//114 42//150
f 42//149 58//213 57//208 41//144
f 42//151 66//114 43//155
f 43//153 59//217 58//212 42//148
f 43//154 66//114 44//159
f 44//157 60//221 59//216 43//152
f 44//158 66//114 45//163
f 45//161 61//225 60//220 44//156
f 45//162 66//114 46//166
f 46//165 62//230 61//224 45//160
f 46//167 66//114 47//171
f 47//169 63//234 62//229 46//164
f 47//170 66//114 48//175
f 48//173 64//237 63//233 47//168
f 48//174 66//114 49//179
f 49//177 65//241 64//236 48//172
f 49//178 66//114 34//119
f 50//182 67//115 65//242
f 51//186 67//115 50//183
f 52//190 67//115 51//187
f 53//194 67//115 52//191
f 54//199 67//115 53//195
f 55//202 67//115 54//198
f 56//207 67//115 55//203
f 57//210 67//115 56//206
f 58//214 67//115 57//211
f 59//218 67//115 58//215
f 60//222 67//115 59//219
f 61//226 67//115 60//223
f 62//231 67//115 61//227
f 63//232 67//115 62//228
f 64//238 67//115 63//235
f 65//243 67//115 64//239
