# Exported from Wings 3D 0.98.34
mtllib joint_slider.mtl
o cube1
#8 vertices, 6 faces
v 0.25000000 -0.25000000 1.00000000
v 0.25000000 0.25000000 1.00000000
v 0.25000000 0.25000000 -1.00000000
v 0.25000000 -0.25000000 -1.00000000
v -0.25000000 -0.25000000 1.00000000
v -0.25000000 0.25000000 1.00000000
v -0.25000000 0.25000000 -1.00000000
v -0.25000000 -0.25000000 -1.00000000
vn 1.00000000 0.0000000e+0 5.5511151e-17
vn 0.0000000e+0 -1.00000000 0.0000000e+0
vn 0.0000000e+0 0.0000000e+0 1.00000000
vn 1.00000000 0.0000000e+0 5.5511151e-17
vn 0.0000000e+0 1.00000000 0.0000000e+0
vn 0.0000000e+0 0.0000000e+0 1.00000000
vn 1.00000000 0.0000000e+0 5.5511151e-17
vn 0.0000000e+0 0.0000000e+0 -1.00000000
vn 0.0000000e+0 1.00000000 0.0000000e+0
vn 1.00000000 0.0000000e+0 5.5511151e-17
vn 0.0000000e+0 0.0000000e+0 -1.00000000
vn 0.0000000e+0 -1.00000000 0.0000000e+0
vn 0.0000000e+0 -1.00000000 0.0000000e+0
vn -1.00000000 0.0000000e+0 -5.5511151e-17
vn 0.0000000e+0 0.0000000e+0 1.00000000
vn 0.0000000e+0 1.00000000 0.0000000e+0
vn -1.00000000 0.0000000e+0 -5.5511151e-17
vn 0.0000000e+0 0.0000000e+0 1.00000000
vn 0.0000000e+0 0.0000000e+0 -1.00000000
vn 0.0000000e+0 1.00000000 0.0000000e+0
vn -1.00000000 0.0000000e+0 -5.5511151e-17
vn 0.0000000e+0 0.0000000e+0 -1.00000000
vn 0.0000000e+0 -1.00000000 0.0000000e+0
vn -1.00000000 0.0000000e+0 -5.5511151e-17
g cube1_hinge_slider
usemtl hinge_slider
f 1//1 4//10 3//7 2//4
f 1//2 5//13 8//23 4//12
f 2//6 6//18 5//15 1//3
f 3//9 7//20 6//16 2//5
f 4//11 8//22 7//19 3//8
f 6//17 7//21 8//24 5//14
