# Exported from Wings 3D 0.98.34
mtllib platform.mtl
o grid1
#125 vertices, 105 faces
v -2.50000000 0.10000000 -2.50000000
v -2.00000000 0.10000000 -2.50000000
v -1.50000000 0.10000000 -2.50000000
v -1.00000000 0.10000000 -2.50000000
v -0.50000000 0.10000000 -2.50000000
v 0.0000000e+0 0.10000000 -2.50000000
v 0.50000000 0.10000000 -2.50000000
v 1.00000000 0.10000000 -2.50000000
v 1.50000000 0.10000000 -2.50000000
v 2.00000000 0.10000000 -2.50000000
v 2.50000000 0.10000000 -2.50000000
v -2.50000000 0.10000000 -2.00000000
v -2.00000000 0.10000000 -2.00000000
v -1.50000000 0.10000000 -2.00000000
v -1.00000000 0.10000000 -2.00000000
v -0.50000000 0.10000000 -2.00000000
v 0.0000000e+0 0.10000000 -2.00000000
v 0.50000000 0.10000000 -2.00000000
v 1.00000000 0.10000000 -2.00000000
v 1.50000000 0.10000000 -2.00000000
v 2.00000000 0.10000000 -2.00000000
v 2.50000000 0.10000000 -2.00000000
v -2.50000000 0.10000000 -1.50000000
v -2.00000000 0.10000000 -1.50000000
v -1.50000000 0.10000000 -1.50000000
v -1.00000000 0.10000000 -1.50000000
v -0.50000000 0.10000000 -1.50000000
v 0.0000000e+0 0.10000000 -1.50000000
v 0.50000000 0.10000000 -1.50000000
v 1.00000000 0.10000000 -1.50000000
v 1.50000000 0.10000000 -1.50000000
v 2.00000000 0.10000000 -1.50000000
v 2.50000000 0.10000000 -1.50000000
v -2.50000000 0.10000000 -1.00000000
v -2.00000000 0.10000000 -1.00000000
v -1.50000000 0.10000000 -1.00000000
v -1.00000000 0.10000000 -1.00000000
v -0.50000000 0.10000000 -1.00000000
v 0.0000000e+0 0.10000000 -1.00000000
v 0.50000000 0.10000000 -1.00000000
v 1.00000000 0.10000000 -1.00000000
v 1.50000000 0.10000000 -1.00000000
v 2.00000000 0.10000000 -1.00000000
v 2.50000000 0.10000000 -1.00000000
v -2.50000000 0.10000000 -0.50000000
v -2.00000000 0.10000000 -0.50000000
v -1.50000000 0.10000000 -0.50000000
v -1.00000000 0.10000000 -0.50000000
v -0.50000000 0.10000000 -0.50000000
v 0.0000000e+0 0.10000000 -0.50000000
v 0.50000000 0.10000000 -0.50000000
v 1.00000000 0.10000000 -0.50000000
v 1.50000000 0.10000000 -0.50000000
v 2.00000000 0.10000000 -0.50000000
v 2.50000000 0.10000000 -0.50000000
v -2.50000000 0.10000000 0.0000000e+0
v -2.00000000 0.10000000 0.0000000e+0
v -1.50000000 0.10000000 0.0000000e+0
v -1.00000000 0.10000000 0.0000000e+0
v -0.50000000 0.10000000 0.0000000e+0
v 0.0000000e+0 0.10000000 0.0000000e+0
v 0.50000000 0.10000000 0.0000000e+0
v 1.00000000 0.10000000 0.0000000e+0
v 1.50000000 0.10000000 0.0000000e+0
v 2.00000000 0.10000000 0.0000000e+0
v 2.50000000 0.10000000 0.0000000e+0
v -2.50000000 0.10000000 0.50000000
v -2.00000000 0.10000000 0.50000000
v -1.50000000 0.10000000 0.50000000
v -1.00000000 0.10000000 0.50000000
v -0.50000000 0.10000000 0.50000000
v 0.0000000e+0 0.10000000 0.50000000
v 0.50000000 0.10000000 0.50000000
v 1.00000000 0.10000000 0.50000000
v 1.50000000 0.10000000 0.50000000
v 2.00000000 0.10000000 0.50000000
v 2.50000000 0.10000000 0.50000000
v -2.50000000 0.10000000 1.00000000
v -2.00000000 0.10000000 1.00000000
v -1.50000000 0.10000000 1.00000000
v -1.00000000 0.10000000 1.00000000
v -0.50000000 0.10000000 1.00000000
v 0.0000000e+0 0.10000000 1.00000000
v 0.50000000 0.10000000 1.00000000
v 1.00000000 0.10000000 1.00000000
v 1.50000000 0.10000000 1.00000000
v 2.00000000 0.10000000 1.00000000
v 2.50000000 0.10000000 1.00000000
v -2.50000000 0.10000000 1.50000000
v -2.00000000 0.10000000 1.50000000
v -1.50000000 0.10000000 1.50000000
v -1.00000000 0.10000000 1.50000000
v -0.50000000 0.10000000 1.50000000
v 0.0000000e+0 0.10000000 1.50000000
v 0.50000000 0.10000000 1.50000000
v 1.00000000 0.10000000 1.50000000
v 1.50000000 0.10000000 1.50000000
v 2.00000000 0.10000000 1.50000000
v 2.50000000 0.10000000 1.50000000
v -2.50000000 0.10000000 2.00000000
v -2.00000000 0.10000000 2.00000000
v -1.50000000 0.10000000 2.00000000
v -1.00000000 0.10000000 2.00000000
v -0.50000000 0.10000000 2.00000000
v 0.0000000e+0 0.10000000 2.00000000
v 0.50000000 0.10000000 2.00000000
v 1.00000000 0.10000000 2.00000000
v 1.50000000 0.10000000 2.00000000
v 2.00000000 0.10000000 2.00000000
v 2.50000000 0.10000000 2.00000000
v -2.50000000 0.10000000 2.50000000
v -2.00000000 0.10000000 2.50000000
v -1.50000000 0.10000000 2.50000000
v -1.00000000 0.10000000 2.50000000
v -0.50000000 0.10000000 2.50000000
v 0.0000000e+0 0.10000000 2.50000000
v 0.50000000 0.10000000 2.50000000
v 1.00000000 0.10000000 2.50000000
v 1.50000000 0.10000000 2.50000000
v 2.00000000 0.10000000 2.50000000
v 2.50000000 0.10000000 2.50000000
v -2.50000000 -0.10000000 -2.50000000
v 2.50000000 -0.10000000 -2.50000000
v -2.50000000 -0.10000000 2.50000000
v 2.50000000 -0.10000000 2.50000000
vn 0.0000000e+0 1.00000000 0.0000000e+0
vn 0.0000000e+0 1.00000000 0.0000000e+0
vn 0.0000000e+0 1.00000000 0.0000000e+0
vn 0.0000000e+0 1.00000000 0.0000000e+0
vn 0.0000000e+0 1.00000000 0.0000000e+0
vn 0.0000000e+0 1.00000000 0.0000000e+0
vn 0.0000000e+0 1.00000000 0.0000000e+0
vn 0.0000000e+0 1.00000000 0.0000000e+0
vn 0.0000000e+0 1.00000000 0.0000000e+0
vn 0.0000000e+0 1.00000000 0.0000000e+0
vn 0.0000000e+0 1.00000000 0.0000000e+0
vn 0.0000000e+0 1.00000000 0.0000000e+0
vn 0.0000000e+0 1.00000000 0.0000000e+0
vn 0.0000000e+0 1.00000000 0.0000000e+0
vn 0.0000000e+0 1.00000000 0.0000000e+0
vn 0.0000000e+0 1.00000000 0.0000000e+0
vn 0.0000000e+0 1.00000000 0.0000000e+0
vn 0.0000000e+0 1.00000000 0.0000000e+0
vn 0.0000000e+0 1.00000000 0.0000000e+0
vn 0.0000000e+0 1.00000000 0.0000000e+0
vn 0.0000000e+0 1.00000000 0.0000000e+0
vn 0.0000000e+0 1.00000000 0.0000000e+0
vn 0.0000000e+0 1.00000000 0.0000000e+0
vn 0.0000000e+0 1.00000000 0.0000000e+0
vn 0.0000000e+0 1.00000000 0.0000000e+0
vn 0.0000000e+0 1.00000000 0.0000000e+0
vn 0.0000000e+0 1.00000000 0.0000000e+0
vn 0.0000000e+0 1.00000000 0.0000000e+0
vn 0.0000000e+0 1.00000000 0.0000000e+0
vn 0.0000000e+0 1.00000000 0.0000000e+0
vn 0.0000000e+0 1.00000000 0.0000000e+0
vn 0.0000000e+0 1.00000000 0.0000000e+0
vn 0.0000000e+0 1.00000000 0.0000000e+0
vn 0.0000000e+0 1.00000000 0.0000000e+0
vn 0.0000000e+0 1.00000000 0.0000000e+0
vn 0.0000000e+0 1.00000000 0.0000000e+0
vn 0.0000000e+0 1.00000000 0.0000000e+0
vn 0.0000000e+0 1.00000000 0.0000000e+0
vn 0.0000000e+0 1.00000000 0.0000000e+0
vn 0.0000000e+0 1.00000000 0.0000000e+0
vn 0.0000000e+0 1.00000000 0.0000000e+0
vn 0.0000000e+0 1.00000000 0.0000000e+0
vn 0.0000000e+0 1.00000000 0.0000000e+0
vn 0.0000000e+0 1.00000000 0.0000000e+0
vn 0.0000000e+0 1.00000000 0.0000000e+0
vn 0.0000000e+0 1.00000000 0.0000000e+0
vn 0.0000000e+0 1.00000000 0.0000000e+0
vn 0.0000000e+0 1.00000000 0.0000000e+0
vn 0.0000000e+0 1.00000000 0.0000000e+0
vn 0.0000000e+0 1.00000000 0.0000000e+0
vn 0.0000000e+0 1.00000000 0.0000000e+0
vn 0.0000000e+0 1.00000000 0.0000000e+0
vn 0.0000000e+0 1.00000000 0.0000000e+0
vn 0.0000000e+0 1.00000000 0.0000000e+0
vn 0.0000000e+0 1.00000000 0.0000000e+0
vn 0.0000000e+0 1.00000000 0.0000000e+0
vn 0.0000000e+0 1.00000000 0.0000000e+0
vn 0.0000000e+0 1.00000000 0.0000000e+0
vn 0.0000000e+0 1.00000000 0.0000000e+0
vn 0.0000000e+0 1.00000000 0.0000000e+0
vn 0.0000000e+0 1.00000000 0.0000000e+0
vn 0.0000000e+0 1.00000000 0.0000000e+0
vn 0.0000000e+0 1.00000000 0.0000000e+0
vn 0.0000000e+0 1.00000000 0.0000000e+0
vn 0.0000000e+0 1.00000000 0.0000000e+0
vn 0.0000000e+0 1.00000000 0.0000000e+0
vn 0.0000000e+0 1.00000000 0.0000000e+0
vn 0.0000000e+0 1.00000000 0.0000000e+0
vn 0.0000000e+0 1.00000000 0.0000000e+0
vn 0.0000000e+0 1.00000000 0.0000000e+0
vn 0.0000000e+0 1.00000000 0.0000000e+0
vn 0.0000000e+0 1.00000000 0.0000000e+0
vn 0.0000000e+0 1.00000000 0.0000000e+0
vn 0.0000000e+0 1.00000000 0.0000000e+0
vn 0.0000000e+0 1.00000000 0.0000000e+0
vn 0.0000000e+0 1.00000000 0.0000000e+0
vn 0.0000000e+0 1.00000000 0.0000000e+0
vn 0.0000000e+0 1.00000000 0.0000000e+0
vn 0.0000000e+0 1.00000000 0.0000000e+0
vn 0.0000000e+0 1.00000000 0.0000000e+0
vn 0.0000000e+0 1.00000000 0.0000000e+0
vn -1.00000000 0.0000000e+0 0.0000000e+0
vn 0.0000000e+0 0.0000000e+0 -1.00000000
vn 0.0000000e+0 1.00000000 0.0000000e+0
vn 0.0000000e+0 0.0000000e+0 -1.00000000
vn 0.0000000e+0 1.00000000 0.0000000e+0
vn 0.0000000e+0 1.00000000 0.0000000e+0
vn 0.0000000e+0 0.0000000e+0 -1.00000000
vn 0.0000000e+0 1.00000000 0.0000000e+0
vn 0.0000000e+0 1.00000000 0.0000000e+0
vn 0.0000000e+0 0.0000000e+0 -1.00000000
vn 0.0000000e+0 1.00000000 0.0000000e+0
vn 0.0000000e+0 1.00000000 0.0000000e+0
vn 0.0000000e+0 0.0000000e+0 -1.00000000
vn 0.0000000e+0 1.00000000 0.0000000e+0
vn 0.0000000e+0 1.00000000 0.0000000e+0
vn 0.0000000e+0 0.0000000e+0 -1.00000000
vn 0.0000000e+0 1.00000000 0.0000000e+0
vn 0.0000000e+0 1.00000000 0.0000000e+0
vn 0.0000000e+0 0.0000000e+0 -1.00000000
vn 0.0000000e+0 1.00000000 0.0000000e+0
vn 0.0000000e+0 1.00000000 0.0000000e+0
vn 0.0000000e+0 0.0000000e+0 -1.00000000
vn 0.0000000e+0 1.00000000 0.0000000e+0
vn 0.0000000e+0 1.00000000 0.0000000e+0
vn 0.0000000e+0 0.0000000e+0 -1.00000000
vn 0.0000000e+0 1.00000000 0.0000000e+0
vn 0.0000000e+0 1.00000000 0.0000000e+0
vn 0.0000000e+0 0.0000000e+0 -1.00000000
vn 0.0000000e+0 1.00000000 0.0000000e+0
vn 0.0000000e+0 1.00000000 0.0000000e+0
vn 1.00000000 0.0000000e+0 0.0000000e+0
vn 0.0000000e+0 0.0000000e+0 -1.00000000
vn 0.0000000e+0 1.00000000 0.0000000e+0
vn -1.00000000 0.0000000e+0 0.0000000e+0
vn 0.0000000e+0 1.00000000 0.0000000e+0
vn 0.0000000e+0 1.00000000 0.0000000e+0
vn 1.00000000 0.0000000e+0 0.0000000e+0
vn 0.0000000e+0 1.00000000 0.0000000e+0
vn 0.0000000e+0 1.00000000 0.0000000e+0
vn -1.00000000 0.0000000e+0 0.0000000e+0
vn 0.0000000e+0 1.00000000 0.0000000e+0
vn 0.0000000e+0 1.00000000 0.0000000e+0
vn 1.00000000 0.0000000e+0 0.0000000e+0
vn 0.0000000e+0 1.00000000 0.0000000e+0
vn 0.0000000e+0 1.00000000 0.0000000e+0
vn -1.00000000 0.0000000e+0 0.0000000e+0
vn 0.0000000e+0 1.00000000 0.0000000e+0
vn 0.0000000e+0 1.00000000 0.0000000e+0
vn 1.00000000 0.0000000e+0 0.0000000e+0
vn 0.0000000e+0 1.00000000 0.0000000e+0
vn 0.0000000e+0 1.00000000 0.0000000e+0
vn -1.00000000 0.0000000e+0 0.0000000e+0
vn 0.0000000e+0 1.00000000 0.0000000e+0
vn 0.0000000e+0 1.00000000 0.0000000e+0
vn 1.00000000 0.0000000e+0 0.0000000e+0
vn 0.0000000e+0 1.00000000 0.0000000e+0
vn 0.0000000e+0 1.00000000 0.0000000e+0
vn -1.00000000 0.0000000e+0 0.0000000e+0
vn 0.0000000e+0 1.00000000 0.0000000e+0
vn 0.0000000e+0 1.00000000 0.0000000e+0
vn 1.00000000 0.0000000e+0 0.0000000e+0
vn 0.0000000e+0 1.00000000 0.0000000e+0
vn 0.0000000e+0 1.00000000 0.0000000e+0
vn -1.00000000 0.0000000e+0 0.0000000e+0
vn 0.0000000e+0 1.00000000 0.0000000e+0
vn 0.0000000e+0 1.00000000 0.0000000e+0
vn 1.00000000 0.0000000e+0 0.0000000e+0
vn 0.0000000e+0 1.00000000 0.0000000e+0
vn 0.0000000e+0 1.00000000 0.0000000e+0
vn -1.00000000 0.0000000e+0 0.0000000e+0
vn 0.0000000e+0 1.00000000 0.0000000e+0
vn 0.0000000e+0 1.00000000 0.0000000e+0
vn 1.00000000 0.0000000e+0 0.0000000e+0
vn 0.0000000e+0 1.00000000 0.0000000e+0
vn 0.0000000e+0 1.00000000 0.0000000e+0
vn -1.00000000 0.0000000e+0 0.0000000e+0
vn 0.0000000e+0 1.00000000 0.0000000e+0
vn 0.0000000e+0 1.00000000 0.0000000e+0
vn 1.00000000 0.0000000e+0 0.0000000e+0
vn 0.0000000e+0 1.00000000 0.0000000e+0
vn 0.0000000e+0 1.00000000 0.0000000e+0
vn -1.00000000 0.0000000e+0 0.0000000e+0
vn 0.0000000e+0 1.00000000 0.0000000e+0
vn 0.0000000e+0 1.00000000 0.0000000e+0
vn 1.00000000 0.0000000e+0 0.0000000e+0
vn 0.0000000e+0 1.00000000 0.0000000e+0
vn 0.0000000e+0 1.00000000 0.0000000e+0
vn 0.0000000e+0 0.0000000e+0 1.00000000
vn -1.00000000 0.0000000e+0 0.0000000e+0
vn 0.0000000e+0 1.00000000 0.0000000e+0
vn 0.0000000e+0 0.0000000e+0 1.00000000
vn 0.0000000e+0 1.00000000 0.0000000e+0
vn 0.0000000e+0 1.00000000 0.0000000e+0
vn 0.0000000e+0 0.0000000e+0 1.00000000
vn 0.0000000e+0 1.00000000 0.0000000e+0
vn 0.0000000e+0 1.00000000 0.0000000e+0
vn 0.0000000e+0 0.0000000e+0 1.00000000
vn 0.0000000e+0 1.00000000 0.0000000e+0
vn 0.0000000e+0 1.00000000 0.0000000e+0
vn 0.0000000e+0 0.0000000e+0 1.00000000
vn 0.0000000e+0 1.00000000 0.0000000e+0
vn 0.0000000e+0 1.00000000 0.0000000e+0
vn 0.0000000e+0 0.0000000e+0 1.00000000
vn 0.0000000e+0 1.00000000 0.0000000e+0
vn 0.0000000e+0 1.00000000 0.0000000e+0
vn 0.0000000e+0 0.0000000e+0 1.00000000
vn 0.0000000e+0 1.00000000 0.0000000e+0
vn 0.0000000e+0 1.00000000 0.0000000e+0
vn 0.0000000e+0 0.0000000e+0 1.00000000
vn 0.0000000e+0 1.00000000 0.0000000e+0
vn 0.0000000e+0 1.00000000 0.0000000e+0
vn 0.0000000e+0 0.0000000e+0 1.00000000
vn 0.0000000e+0 1.00000000 0.0000000e+0
vn 0.0000000e+0 1.00000000 0.0000000e+0
vn 0.0000000e+0 0.0000000e+0 1.00000000
vn 0.0000000e+0 1.00000000 0.0000000e+0
vn 0.0000000e+0 1.00000000 0.0000000e+0
vn 1.00000000 0.0000000e+0 0.0000000e+0
vn 0.0000000e+0 0.0000000e+0 1.00000000
vn 0.0000000e+0 1.00000000 0.0000000e+0
vn -1.00000000 0.0000000e+0 0.0000000e+0
vn 0.0000000e+0 0.0000000e+0 -1.00000000
vn 0.0000000e+0 -1.00000000 0.0000000e+0
vn 1.00000000 0.0000000e+0 0.0000000e+0
vn 0.0000000e+0 0.0000000e+0 -1.00000000
vn 0.0000000e+0 -1.00000000 0.0000000e+0
vn 0.0000000e+0 0.0000000e+0 1.00000000
vn -1.00000000 0.0000000e+0 0.0000000e+0
vn 0.0000000e+0 -1.00000000 0.0000000e+0
vn 1.00000000 0.0000000e+0 0.0000000e+0
vn 0.0000000e+0 0.0000000e+0 1.00000000
vn 0.0000000e+0 -1.00000000 0.0000000e+0
g grid1_dark
usemtl dark
f 2//87 13//1 14//2 3//89
f 4//93 15//3 16//4 5//95
f 6//99 17//5 18//6 7//101
f 8//105 19//7 20//8 9//107
f 10//111 21//9 22//119 11//114
f 12//117 23//122 24//10 13//1
f 14//2 25//11 26//12 15//3
f 16//4 27//13 28//14 17//5
f 18//6 29//15 30//16 19//7
f 20//8 31//17 32//18 21//9
f 24//10 35//19 36//20 25//11
f 26//12 37//21 38//22 27//13
f 28//14 39//23 40//24 29//15
f 30//16 41//25 42//26 31//17
f 32//18 43//27 44//131 33//126
f 34//129 45//134 46//28 35//19
f 36//20 47//29 48//30 37//21
f 38//22 49//31 50//32 39//23
f 40//24 51//33 52//34 41//25
f 42//26 53//35 54//36 43//27
f 46//28 57//37 58//38 47//29
f 48//30 59//39 60//40 49//31
f 50//32 61//41 62//42 51//33
f 52//34 63//43 64//44 53//35
f 54//36 65//45 66//143 55//138
f 56//141 67//146 68//46 57//37
f 58//38 69//47 70//48 59//39
f 60//40 71//49 72//50 61//41
f 62//42 73//51 74//52 63//43
f 64//44 75//53 76//54 65//45
f 68//46 79//55 80//56 69//47
f 70//48 81//57 82//58 71//49
f 72//50 83//59 84//60 73//51
f 74//52 85//61 86//62 75//53
f 76//54 87//63 88//155 77//150
f 78//153 89//158 90//64 79//55
f 80//56 91//65 92//66 81//57
f 82//58 93//67 94//68 83//59
f 84//60 95//69 96//70 85//61
f 86//62 97//71 98//72 87//63
f 90//64 101//73 102//74 91//65
f 92//66 103//75 104//76 93//67
f 94//68 105//77 106//78 95//69
f 96//70 107//79 108//80 97//71
f 98//72 109//81 110//167 99//162
f 100//165 111//171 112//173 101//73
f 102//74 113//177 114//179 103//75
f 104//76 115//183 116//185 105//77
f 106//78 117//189 118//191 107//79
f 108//80 119//195 120//197 109//81
g grid1_lite
usemtl lite
f 1//84 12//116 13//1 2//86
f 1//82 122//202 124//209 111//170 100//163 89//157 78//151 67//145 56//139 45//133 34//127 23//121 12//115
f 2//85 3//88 4//91 5//94 6//97 7//100 8//103 9//106 10//109 11//113 123//206 122//203 1//83
f 3//90 14//2 15//3 4//92
f 5//96 16//4 17//5 6//98
f 7//102 18//6 19//7 8//104
f 9//108 20//8 21//9 10//110
f 13//1 24//10 25//11 14//2
f 15//3 26//12 27//13 16//4
f 17//5 28//14 29//15 18//6
f 19//7 30//16 31//17 20//8
f 21//9 32//18 33//125 22//120
f 22//118 33//124 44//130 55//136 66//142 77//148 88//154 99//160 110//166 121//199 125//211 123//205 11//112
f 23//123 34//128 35//19 24//10
f 25//11 36//20 37//21 26//12
f 27//13 38//22 39//23 28//14
f 29//15 40//24 41//25 30//16
f 31//17 42//26 43//27 32//18
f 35//19 46//28 47//29 36//20
f 37//21 48//30 49//31 38//22
f 39//23 50//32 51//33 40//24
f 41//25 52//34 53//35 42//26
f 43//27 54//36 55//137 44//132
f 45//135 56//140 57//37 46//28
f 47//29 58//38 59//39 48//30
f 49//31 60//40 61//41 50//32
f 51//33 62//42 63//43 52//34
f 53//35 64//44 65//45 54//36
f 57//37 68//46 69//47 58//38
f 59//39 70//48 71//49 60//40
f 61//41 72//50 73//51 62//42
f 63//43 74//52 75//53 64//44
f 65//45 76//54 77//149 66//144
f 67//147 78//152 79//55 68//46
f 69//47 80//56 81//57 70//48
f 71//49 82//58 83//59 72//50
f 73//51 84//60 85//61 74//52
f 75//53 86//62 87//63 76//54
f 79//55 90//64 91//65 80//56
f 81//57 92//66 93//67 82//58
f 83//59 94//68 95//69 84//60
f 85//61 96//70 97//71 86//62
f 87//63 98//72 99//161 88//156
f 89//159 100//164 101//73 90//64
f 91//65 102//74 103//75 92//66
f 93//67 104//76 105//77 94//68
f 95//69 106//78 107//79 96//70
f 97//71 108//80 109//81 98//72
f 101//73 112//174 113//176 102//74
f 103//75 114//180 115//182 104//76
f 105//77 116//186 117//188 106//78
f 107//79 118//192 119//194 108//80
f 109//81 120//198 121//201 110//168
f 111//169 124//208 125//212 121//200 120//196 119//193 118//190 117//187 116//184 115//181 114//178 113//175 112//172
f 123//207 125//213 124//210 122//204
