v -0.5 -0.666667 -1.33333
v -0.4375 -0.666667 -1.33333
v -0.5 -0.666667 -1.27083
v -0.5 -0.666667 2.66667
v -0.5 -0.666667 2.52377
v -0.4375 -0.666667 2.66667
v -0.5 1.33333 -1.33333
v -0.5 1.23063 -1.27083
v -0.5 1.30213 -1.27083
v -0.4375 1.30213 -1.27083
v -0.4375 1.33333 -1.33333
v -0.4375 1.26193 -1.33333
v -0.5 1.26193 -1.33333
v 0.5 -0.666667 -1.33333
v 0.5 -0.604167 -1.33333
v 0.5 -0.666667 -1.27083
v 0.5 -0.666667 -1.33333
v 0.4375 -0.604167 -1.33333
v 0.5 -0.604167 -1.33333
v 0.5 -0.666667 -1.33333
v 0.4375 -0.666667 -1.27083
v 0.4375 -0.666667 -1.33333
v 0.5 -0.666667 2.66667
v 0.5 -0.604167 2.39877
v 0.5 -0.604167 2.54167
v 0.4375 -0.604167 2.54167
v 0.4375 -0.666667 2.66667
v 0.4375 -0.666667 2.52377
v 0.5 -0.666667 2.52377
v 0.5 1.33333 -1.33333
v 0.5 1.30213 -1.27083
v 0.5 1.26193 -1.33333
v 0.4375 1.33333 -1.33333
v 0.5 -0.604167 -1.27083
v 0.5 -0.666667 2.52377
v 0.5 -0.666667 -1.27083
v -0.4375 -0.666667 -1.33333
v 0.4375 -0.666667 -1.33333
v 0.5 1.26193 -1.33333
v 0.5 1.23063 -1.27083
v 0.4375 1.26193 -1.33333
v -0.5 1.26193 -1.33333
v -0.5 -0.604167 -1.33333
v -0.4375 -0.666667 2.52377
v -0.5 -0.666667 2.52377
v -0.5 -0.604167 2.54167
v -0.5 -0.604167 2.39877
v -0.5 -0.604167 -1.27083
v 0.4375 1.30213 -1.27083
v -0.4375 -0.666667 -1.27083
v -0.5 -0.666667 -1.27083
v -0.5 -0.666667 -1.33333
v -0.4375 -0.604167 2.54167
v -0.5 -0.604167 -1.33333
v -0.5 -0.666667 -1.33333
v -0.4375 -0.604167 -1.33333
vt 0.1205 0.2800
vt 0.1216 0.2800
vt 0.1205 0.2812
vt 0.1205 0.3564
vt 0.1205 0.3537
vt 0.1216 0.3564
vt 0.1205 0.4418
vt 0.1192 0.4399
vt 0.1205 0.4405
vt 0.1216 0.4405
vt 0.1216 0.4418
vt 0.1216 0.4432
vt 0.1205 0.4432
vt 0.1737 0.4247
vt 0.1726 0.4253
vt 0.1732 0.4237
vt 0.1395 0.4800
vt 0.1384 0.4788
vt 0.1395 0.4788
vt 0.1395 0.2800
vt 0.1384 0.2812
vt 0.1384 0.2800
vt 0.1395 0.3564
vt 0.1408 0.3615
vt 0.1395 0.3591
vt 0.1384 0.3591
vt 0.1384 0.3564
vt 0.1384 0.3537
vt 0.1395 0.3537
vt 0.1395 0.4418
vt 0.1395 0.4405
vt 0.1408 0.4412
vt 0.1384 0.4418
vt 0.1721 0.4242
vt 0.1408 0.3588
vt 0.1395 0.2812
vt 0.1216 0.4800
vt 0.1384 0.4800
vt 0.1395 0.4432
vt 0.1408 0.4399
vt 0.1384 0.4432
vt 0.1192 0.4412
vt 0.0874 0.4253
vt 0.1216 0.3537
vt 0.1192 0.3588
vt 0.1205 0.3591
vt 0.1192 0.3615
vt 0.0879 0.4242
vt 0.1384 0.4405
vt 0.1216 0.2812
vt 0.0868 0.4237
vt 0.0863 0.4247
vt 0.1216 0.3591
vt 0.1205 0.4788
vt 0.1205 0.4800
vt 0.1216 0.4788
vn -0.5774 -0.5774 -0.5774
vn 0.0000 -0.7071 -0.7071
vn -0.7071 -0.7071 0.0000
vn -0.9087 -0.0959 0.4064
vn -0.7071 -0.7071 0.0000
vn 0.0000 -0.2298 0.9732
vn -0.6892 0.6164 -0.3810
vn -1.0000 0.0000 0.0000
vn -0.7071 0.6325 0.3162
vn 0.0000 0.8944 0.4472
vn 0.0000 0.8507 -0.5257
vn 0.0000 0.0000 -1.0000
vn -0.7071 0.0000 -0.7071
vn 0.3333 -0.6667 -0.6667
vn 0.8321 0.0000 -0.5547
vn 0.7071 -0.7071 0.0000
vn 0.3333 -0.6667 -0.6667
vn 0.0000 0.0000 -1.0000
vn 0.8321 0.0000 -0.5547
vn 0.3333 -0.6667 -0.6667
vn 0.0000 -1.0000 0.0000
vn 0.0000 -0.7071 -0.7071
vn 0.9087 -0.0959 0.4064
vn 1.0000 0.0000 0.0000
vn 0.7071 0.6325 0.3162
vn 0.0000 0.8944 0.4472
vn 0.0000 -0.2298 0.9732
vn 0.0000 -1.0000 0.0000
vn 0.8321 -0.5547 0.0000
vn 0.6892 0.6164 -0.3810
vn 0.7071 0.6325 0.3162
vn 0.7071 0.0000 -0.7071
vn 0.0000 0.8507 -0.5257
vn 1.0000 -0.0000 0.0000
vn 0.8321 -0.5547 0.0000
vn 0.7071 -0.7071 0.0000
vn 0.0000 -0.7071 -0.7071
vn 0.0000 -0.7071 -0.7071
vn 0.7071 0.0000 -0.7071
vn 1.0000 0.0000 0.0000
vn 0.0000 0.0000 -1.0000
vn -0.7071 0.0000 -0.7071
vn -0.7071 0.0000 -0.7071
vn 0.0000 -1.0000 0.0000
vn -0.7071 -0.7071 0.0000
vn -0.7071 0.6325 0.3162
vn -1.0000 0.0000 0.0000
vn -1.0000 0.0000 0.0000
vn 0.0000 0.8944 0.4472
vn 0.0000 -1.0000 0.0000
vn -0.7071 -0.7071 0.0000
vn -0.5774 -0.5774 -0.5774
vn 0.0000 0.8944 0.4472
vn -0.7071 0.0000 -0.7071
vn -0.5774 -0.5774 -0.5774
vn 0.0000 0.0000 -1.0000
usemtl blocks
f 1/1/1 2/2/2 3/3/3
f 3/3/3 2/2/2 50/50/50
f 50/50/50 44/44/44 3/3/3
f 5/5/5 3/3/3 44/44/44
f 44/44/44 6/6/6 5/5/5
f 4/4/4 5/5/5 6/6/6
f 6/6/6 46/46/46 4/4/4
f 46/46/46 45/45/45 4/4/4
f 45/45/45 46/46/46 47/47/47
f 47/47/47 51/51/51 45/45/45
f 51/51/51 47/47/47 48/48/48
f 48/48/48 43/43/43 51/51/51
f 51/51/51 43/43/43 52/52/52
f 8/8/8 43/43/43 48/48/48
f 48/48/48 47/47/47 8/8/8
f 47/47/47 46/46/46 8/8/8
f 42/42/42 43/43/43 8/8/8
f 42/42/42 8/8/8 7/7/7
f 7/7/7 8/8/8 9/9/9
f 8/8/8 46/46/46 9/9/9
f 9/9/9 10/10/10 7/7/7
f 46/46/46 10/10/10 9/9/9
f 7/7/7 10/10/10 11/11/11
f 11/11/11 12/12/12 7/7/7
f 7/7/7 12/12/12 13/13/13
f 12/12/12 54/54/54 13/13/13
f 54/54/54 12/12/12 56/56/56
f 56/56/56 37/37/37 54/54/54
f 54/54/54 37/37/37 55/55/55
f 18/18/18 37/37/37 56/56/56
f 56/56/56 12/12/12 18/18/18
f 37/37/37 18/18/18 38/38/38
f 38/38/38 18/18/18 17/17/17
f 17/17/17 18/18/18 19/19/19
f 19/19/19 18/18/18 39/39/39
f 39/39/39 18/18/18 41/41/41
f 18/18/18 12/12/12 41/41/41
f 41/41/41 33/33/33 39/39/39
f 41/41/41 12/12/12 33/33/33
f 33/33/33 12/12/12 11/11/11
f 11/11/11 10/10/10 33/33/33
f 39/39/39 33/33/33 30/30/30
f 30/30/30 33/33/33 31/31/31
f 30/30/30 31/31/31 32/32/32
f 32/32/32 31/31/31 40/40/40
f 40/40/40 34/34/34 32/32/32
f 32/32/32 34/34/34 15/15/15
f 16/16/16 15/15/15 34/34/34
f 14/14/14 15/15/15 16/16/16
f 16/16/16 34/34/34 35/35/35
f 35/35/35 34/34/34 24/24/24
f 40/40/40 24/24/24 34/34/34
f 31/31/31 24/24/24 40/40/40
f 35/35/35 24/24/24 23/23/23
f 23/23/23 24/24/24 25/25/25
f 25/25/25 24/24/24 31/31/31
f 25/25/25 26/26/26 23/23/23
f 31/31/31 26/26/26 25/25/25
f 23/23/23 26/26/26 27/27/27
f 26/26/26 6/6/6 27/27/27
f 53/53/53 6/6/6 26/26/26
f 46/46/46 6/6/6 53/53/53
f 53/53/53 10/10/10 46/46/46
f 26/26/26 10/10/10 53/53/53
f 10/10/10 26/26/26 49/49/49
f 49/49/49 33/33/33 10/10/10
f 49/49/49 26/26/26 31/31/31
f 31/31/31 33/33/33 49/49/49
f 27/27/27 6/6/6 28/28/28
f 27/27/27 28/28/28 23/23/23
f 28/28/28 6/6/6 44/44/44
f 44/44/44 50/50/50 28/28/28
f 21/21/21 28/28/28 50/50/50
f 50/50/50 2/2/2 21/21/21
f 22/22/22 21/21/21 2/2/2
f 20/20/20 21/21/21 22/22/22
f 36/36/36 21/21/21 20/20/20
f 36/36/36 28/28/28 21/21/21
f 29/29/29 28/28/28 36/36/36
f 23/23/23 28/28/28 29/29/29
