v -0.5 0.5 -1
v -0.4375 0.4375 -1
v -0.5 0.4375 -1
v -0.4375 0.5 -0.9375
v -0.4375 0.5 -1
v -0.5 0.4375 -0.9375
v -0.5 0.5 -0.9375
v -0.5 -0.5 -1
v -0.5 -0.4375 -1
v -0.4375 -0.5 -1
v -0.5 0.5 1
v -0.5 0.5 0.9375
v -0.5 0.4375 1
v -0.5 -0.5 1
v -0.4375 -0.4375 1
v -0.5 -0.4375 1
v -0.5 -0.5 1
v -0.4375 -0.5 0.9375
v -0.4375 -0.5 1
v -0.5 -0.5 1
v -0.5 -0.4375 0.9375
v -0.5 -0.5 0.9375
v 0.5 0.5 -1
v 0.5 0.5 -0.9375
v 0.5 0.4375 -1
v 0.4375 0.5 -1
v 0.5 -0.5 -1
v 0.4375 -0.4375 -1
v 0.5 -0.4375 -1
v 0.5 -0.5 -1
v 0.4375 -0.5 -0.9375
v 0.4375 -0.5 -1
v 0.5 -0.4375 -0.9375
v 0.5 -0.5 -0.9375
v 0.5 0.5 1
v 0.4375 0.4375 1
v 0.5 0.4375 1
v 0.4375 0.5 0.9375
v 0.4375 0.5 1
v 0.5 0.4375 0.9375
v 0.5 0.5 0.9375
v 0.5 -0.5 1
v 0.5 -0.5 0.9375
v 0.5 -0.4375 1
v -0.4375 0.5 1
v -0.4375 0.5 0.9375
v 0.5 -0.4375 1
v 0.5 0.4375 1
v 0.4375 -0.4375 1
v 0.4375 -0.5 1
v 0.5 -0.5 1
v 0.5 -0.4375 0.9375
v -0.5 0.4375 -1
v 0.5 0.4375 -0.9375
v 0.5 0.4375 -1
v 0.4375 0.4375 -1
v 0.5 -0.4375 -1
v -0.5 0.4375 1
v -0.4375 0.4375 1
v -0.5 -0.4375 1
v -0.5 0.4375 0.9375
v -0.4375 -0.4375 -1
v -0.5 -0.4375 -1
v -0.5 -0.5 -0.9375
v -0.5 -0.4375 -0.9375
v -0.4375 -0.5 1
v 0.4375 -0.5 1
v 0.4375 -0.5 0.9375
v 0.4375 -0.5 -1
v 0.4375 0.5 -0.9375
v -0.4375 -0.5 -1
v -0.4375 -0.5 -0.9375
v -0.5 -0.5 -0.9375
v -0.5 -0.5 -1
v -0.5 -0.5 0.9375
v -0.5 -0.5 -1
vt 0.3300 0.6800
vt 0.3331 0.6831
vt 0.3300 0.6831
vt 0.3331 0.6769
vt 0.3331 0.6800
vt 0.3269 0.6769
vt 0.3300 0.6769
vt 0.3300 0.7300
vt 0.3300 0.7269
vt 0.3331 0.7300
vt 0.3300 0.5800
vt 0.3300 0.5831
vt 0.3269 0.5800
vt 0.3300 0.5300
vt 0.3331 0.5331
vt 0.3300 0.5331
vt 0.4800 0.5800
vt 0.4769 0.5831
vt 0.4769 0.5800
vt 0.2800 0.5800
vt 0.2831 0.5831
vt 0.2800 0.5831
vt 0.3800 0.6800
vt 0.3800 0.6769
vt 0.3831 0.6800
vt 0.3769 0.6800
vt 0.3800 0.7300
vt 0.3769 0.7269
vt 0.3800 0.7269
vt 0.4300 0.6800
vt 0.4331 0.6769
vt 0.4331 0.6800
vt 0.4269 0.6769
vt 0.4300 0.6769
vt 0.3800 0.5800
vt 0.3769 0.5769
vt 0.3800 0.5769
vt 0.3769 0.5831
vt 0.3769 0.5800
vt 0.3831 0.5831
vt 0.3800 0.5831
vt 0.4300 0.5800
vt 0.4300 0.5831
vt 0.4269 0.5800
vt 0.3331 0.5800
vt 0.3331 0.5831
vt 0.3800 0.5331
vt 0.3831 0.5800
vt 0.3769 0.5331
vt 0.3769 0.5300
vt 0.3800 0.5300
vt 0.4269 0.5831
vt 0.3269 0.6800
vt 0.3831 0.6769
vt 0.3800 0.6831
vt 0.3769 0.6831
vt 0.4269 0.6800
vt 0.3300 0.5769
vt 0.3331 0.5769
vt 0.2831 0.5800
vt 0.3269 0.5831
vt 0.3331 0.7269
vt 0.2831 0.6800
vt 0.2800 0.6769
vt 0.2831 0.6769
vt 0.3331 0.5300
vt 0.4331 0.5800
vt 0.4331 0.5831
vt 0.3769 0.7300
vt 0.3769 0.6769
vt 0.4769 0.6800
vt 0.4769 0.6769
vt 0.4800 0.6769
vt 0.4800 0.6800
vt 0.4800 0.5831
vt 0.2800 0.6800
vn -0.5774 0.5774 -0.5774
vn 0.0000 0.0000 -1.0000
vn -0.7071 0.0000 -0.7071
vn 0.0000 1.0000 -0.0000
vn 0.0000 0.7071 -0.7071
vn -1.0000 0.0000 0.0000
vn -0.7071 0.7071 -0.0000
vn -0.5774 -0.5774 -0.5774
vn -0.7071 0.0000 -0.7071
vn 0.0000 -0.7071 -0.7071
vn -0.5774 0.5774 0.5774
vn -0.7071 0.7071 -0.0000
vn -0.7071 0.0000 0.7071
vn -0.5774 -0.5774 0.5774
vn 0.0000 0.0000 1.0000
vn -0.7071 0.0000 0.7071
vn -0.5774 -0.5774 0.5774
vn 0.0000 -1.0000 0.0000
vn 0.0000 -0.7071 0.7071
vn -0.5774 -0.5774 0.5774
vn -1.0000 0.0000 0.0000
vn -0.7071 -0.7071 0.0000
vn 0.5774 0.5774 -0.5774
vn 0.7071 0.7071 -0.0000
vn 0.7071 0.0000 -0.7071
vn 0.0000 0.7071 -0.7071
vn 0.5774 -0.5774 -0.5774
vn 0.0000 0.0000 -1.0000
vn 0.7071 0.0000 -0.7071
vn 0.5774 -0.5774 -0.5774
vn 0.0000 -1.0000 0.0000
vn 0.0000 -0.7071 -0.7071
vn 1.0000 0.0000 0.0000
vn 0.7071 -0.7071 0.0000
vn 0.5774 0.5774 0.5774
vn 0.0000 0.0000 1.0000
vn 0.7071 0.0000 0.7071
vn 0.0000 1.0000 -0.0000
vn 0.0000 0.7071 0.7071
vn 1.0000 0.0000 0.0000
vn 0.7071 0.7071 -0.0000
vn 0.5774 -0.5774 0.5774
vn 0.7071 -0.7071 0.0000
vn 0.7071 0.0000 0.7071
vn 0.0000 0.7071 0.7071
vn 0.0000 1.0000 -0.0000
vn 0.7071 0.0000 0.7071
vn 0.7071 0.0000 0.7071
vn 0.0000 0.0000 1.0000
vn 0.0000 -0.7071 0.7071
vn 0.5774 -0.5774 0.5774
vn 1.0000 0.0000 0.0000
vn -0.7071 0.0000 -0.7071
vn 1.0000 0.0000 0.0000
vn 0.7071 0.0000 -0.7071
vn 0.0000 0.0000 -1.0000
vn 0.7071 0.0000 -0.7071
vn -0.7071 0.0000 0.7071
vn 0.0000 0.0000 1.0000
vn -0.7071 0.0000 0.7071
vn -1.0000 0.0000 0.0000
vn 0.0000 0.0000 -1.0000
vn -0.7071 0.0000 -0.7071
vn -0.7071 -0.7071 0.0000
vn -1.0000 0.0000 0.0000
vn 0.0000 -0.7071 0.7071
vn 0.0000 -0.7071 0.7071
vn 0.0000 -1.0000 0.0000
vn 0.0000 -0.7071 -0.7071
vn 0.0000 1.0000 -0.0000
vn 0.0000 -0.7071 -0.7071
vn 0.0000 -1.0000 0.0000
vn -0.7071 -0.7071 0.0000
vn -0.5774 -0.5774 -0.5774
vn -0.7071 -0.7071 0.0000
vn -0.5774 -0.5774 -0.5774
usemtl blocks
f 1/1/1 2/2/2 3/3/3
f 3/3/3 2/2/2 9/9/9
f 9/9/9 2/2/2 62/62/62
f 62/62/62 10/10/10 9/9/9
f 8/8/8 9/9/9 10/10/10
f 28/28/28 10/10/10 62/62/62
f 62/62/62 2/2/2 28/28/28
f 69/69/69 10/10/10 28/28/28
f 69/69/69 28/28/28 27/27/27
f 27/27/27 28/28/28 29/29/29
f 29/29/29 28/28/28 55/55/55
f 55/55/55 28/28/28 56/56/56
f 56/56/56 28/28/28 2/2/2
f 56/56/56 26/26/26 55/55/55
f 2/2/2 26/26/26 56/56/56
f 55/55/55 26/26/26 23/23/23
f 23/23/23 26/26/26 24/24/24
f 23/23/23 24/24/24 25/25/25
f 25/25/25 24/24/24 54/54/54
f 54/54/54 33/33/33 25/25/25
f 25/25/25 33/33/33 57/57/57
f 57/57/57 33/33/33 30/30/30
f 30/30/30 33/33/33 34/34/34
f 34/34/34 31/31/31 30/30/30
f 30/30/30 31/31/31 32/32/32
f 31/31/31 71/71/71 32/32/32
f 71/71/71 31/31/31 72/72/72
f 72/72/72 73/73/73 71/71/71
f 71/71/71 73/73/73 74/74/74
f 18/18/18 73/73/73 72/72/72
f 72/72/72 31/31/31 18/18/18
f 75/75/75 73/73/73 18/18/18
f 75/75/75 18/18/18 17/17/17
f 17/17/17 18/18/18 19/19/19
f 19/19/19 18/18/18 67/67/67
f 67/67/67 18/18/18 68/68/68
f 18/18/18 31/31/31 68/68/68
f 68/68/68 43/43/43 67/67/67
f 68/68/68 31/31/31 43/43/43
f 43/43/43 31/31/31 34/34/34
f 34/34/34 33/33/33 43/43/43
f 67/67/67 43/43/43 42/42/42
f 42/42/42 43/43/43 44/44/44
f 44/44/44 43/43/43 52/52/52
f 43/43/43 33/33/33 52/52/52
f 52/52/52 40/40/40 44/44/44
f 52/52/52 33/33/33 40/40/40
f 44/44/44 40/40/40 48/48/48
f 48/48/48 40/40/40 35/35/35
f 35/35/35 40/40/40 41/41/41
f 41/41/41 40/40/40 24/24/24
f 41/41/41 38/38/38 35/35/35
f 24/24/24 38/38/38 41/41/41
f 35/35/35 38/38/38 39/39/39
f 39/39/39 36/36/36 35/35/35
f 35/35/35 36/36/36 37/37/37
f 37/37/37 36/36/36 47/47/47
f 47/47/47 36/36/36 49/49/49
f 49/49/49 50/50/50 47/47/47
f 47/47/47 50/50/50 51/51/51
f 15/15/15 50/50/50 49/49/49
f 49/49/49 36/36/36 15/15/15
f 50/50/50 15/15/15 66/66/66
f 66/66/66 15/15/15 14/14/14
f 14/14/14 15/15/15 16/16/16
f 16/16/16 15/15/15 58/58/58
f 58/58/58 15/15/15 59/59/59
f 59/59/59 15/15/15 36/36/36
f 59/59/59 45/45/45 58/58/58
f 36/36/36 45/45/45 59/59/59
f 45/45/45 36/36/36 39/39/39
f 39/39/39 38/38/38 45/45/45
f 58/58/58 45/45/45 11/11/11
f 45/45/45 12/12/12 11/11/11
f 11/11/11 12/12/12 13/13/13
f 13/13/13 12/12/12 61/61/61
f 61/61/61 21/21/21 13/13/13
f 13/13/13 21/21/21 60/60/60
f 60/60/60 21/21/21 20/20/20
f 20/20/20 21/21/21 22/22/22
f 21/21/21 64/64/64 22/22/22
f 65/65/65 64/64/64 21/21/21
f 63/63/63 64/64/64 65/65/65
f 64/64/64 63/63/63 76/76/76
f 65/65/65 6/6/6 63/63/63
f 21/21/21 6/6/6 65/65/65
f 61/61/61 6/6/6 21/21/21
f 12/12/12 6/6/6 61/61/61
f 63/63/63 6/6/6 53/53/53
f 53/53/53 6/6/6 1/1/1
f 1/1/1 6/6/6 7/7/7
f 7/7/7 6/6/6 12/12/12
f 7/7/7 4/4/4 1/1/1
f 12/12/12 4/4/4 7/7/7
f 1/1/1 4/4/4 5/5/5
f 5/5/5 2/2/2 1/1/1
f 26/26/26 2/2/2 5/5/5
f 5/5/5 4/4/4 26/26/26
f 26/26/26 4/4/4 70/70/70
f 70/70/70 24/24/24 26/26/26
f 38/38/38 24/24/24 70/70/70
f 70/70/70 4/4/4 38/38/38
f 46/46/46 38/38/38 4/4/4
f 45/45/45 38/38/38 46/46/46
f 4/4/4 12/12/12 46/46/46
f 46/46/46 12/12/12 45/45/45
f 54/54/54 24/24/24 40/40/40
f 40/40/40 33/33/33 54/54/54
