# Exported from Wings 3D 0.98.34
mtllib platform.mtl
o cube2
#8 vertices, 6 faces
v -4.00000000 -0.12500000 4.00000000
v -4.00000000 0.12500000 4.00000000
v 4.00000000 0.12500000 4.00000000
v 4.00000000 -0.12500000 4.00000000
v -4.00000000 -0.12500000 -4.00000000
v -4.00000000 0.12500000 -4.00000000
v 4.00000000 0.12500000 -4.00000000
v 4.00000000 -0.12500000 -4.00000000
vt -1.50000000 -1.50000000
vt -1.50000000 2.50000000
vt 0.0000000e+0 8.3266727e-17
vt 0.0000000e+0 0.50000000
vt 0.0000000e+0 0.51562500
vt 0.0000000e+0 0.51562500
vt 0.0000000e+0 0.53125000
vt 0.0000000e+0 0.54687500
vt 0.0000000e+0 0.56250000
vt 8.3266727e-17 0.50000000
vt 0.50000000 0.0000000e+0
vt 0.50000000 0.50000000
vt 0.50000000 0.51562500
vt 0.50000000 0.51562500
vt 0.50000000 0.53125000
vt 0.50000000 0.54687500
vt 0.50000000 0.56250000
vt 0.50000000 0.50000000
vt 2.50000000 -1.50000000
vt 2.50000000 2.50000000
vn 0.0000000e+0 0.0000000e+0 1.00000000
vn 0.0000000e+0 -1.00000000 0.0000000e+0
vn -1.00000000 0.0000000e+0 0.0000000e+0
vn 0.0000000e+0 0.0000000e+0 1.00000000
vn 0.0000000e+0 1.00000000 0.0000000e+0
vn -1.00000000 0.0000000e+0 0.0000000e+0
vn 0.0000000e+0 0.0000000e+0 1.00000000
vn 1.00000000 0.0000000e+0 0.0000000e+0
vn 0.0000000e+0 1.00000000 0.0000000e+0
vn 0.0000000e+0 0.0000000e+0 1.00000000
vn 1.00000000 0.0000000e+0 0.0000000e+0
vn 0.0000000e+0 -1.00000000 0.0000000e+0
vn 0.0000000e+0 -1.00000000 0.0000000e+0
vn 0.0000000e+0 0.0000000e+0 -1.00000000
vn -1.00000000 0.0000000e+0 0.0000000e+0
vn 0.0000000e+0 1.00000000 0.0000000e+0
vn 0.0000000e+0 0.0000000e+0 -1.00000000
vn -1.00000000 0.0000000e+0 0.0000000e+0
vn 1.00000000 0.0000000e+0 0.0000000e+0
vn 0.0000000e+0 1.00000000 0.0000000e+0
vn 0.0000000e+0 0.0000000e+0 -1.00000000
vn 1.00000000 0.0000000e+0 0.0000000e+0
vn 0.0000000e+0 -1.00000000 0.0000000e+0
vn 0.0000000e+0 0.0000000e+0 -1.00000000
g cube2_platform
usemtl platform
f 1/6/1 4/14/10 3/15/7 2/7/4
f 1/11/2 5/18/13 8/10/23 4/3/12
f 2/17/6 6/9/18 5/8/15 1/16/3
f 3/19/9 7/20/20 6/2/16 2/1/5
f 4/7/11 8/15/22 7/16/19 3/8/8
f 6/13/17 7/5/21 8/4/24 5/12/14
