# Exported from Wings 3D 0.99.53
o F4:GeoDome3
#162 vertices, 320 faces
v -0.85065081 -0.44721360 -0.27639320
v -0.95542256 -0.25114768 -0.15521780
v -1.00000000 0.0000000e+0 0.0000000e+0
v -0.95542256 0.25114768 0.15521780
v -0.85065081 0.44721360 0.27639320
v -0.86418783 -0.50229537 -2.9643963e-2
v -0.86418783 -0.25114768 -0.43600945
v -0.95105652 -0.27639320 0.13819660
v -0.95105652 0.0000000e+0 -0.30901699
v -0.95105652 0.0000000e+0 0.30901699
v -0.95105652 0.27639320 -0.13819660
v -0.86418783 0.25114768 0.43600945
v -0.86418783 0.50229537 2.9643963e-2
v -0.85065081 -0.27639320 0.44721360
v -0.85065081 0.27639320 -0.44721360
v -0.80901699 -0.52573111 0.26286556
v -0.80901699 0.0000000e+0 -0.58778525
v -0.80901699 0.0000000e+0 0.58778525
v -0.80901699 0.52573111 -0.26286556
v -0.71656692 -0.65751317 -0.23282671
v -0.71656692 -0.50229537 -0.48397439
v -0.71656692 0.50229537 0.48397439
v -0.71656692 0.65751317 0.23282671
v -0.68171835 -0.50229537 0.53193933
v -0.68171835 -0.25114768 0.68715713
v -0.68171835 0.25114768 -0.68715713
v -0.68171835 0.50229537 -0.53193933
v -0.68819096 -0.72360680 5.2786405e-2
v -0.68819096 0.72360680 -5.2786405e-2
v -0.68819096 -0.27639320 -0.67082039
v -0.68819096 0.27639320 0.67082039
v -0.52573111 -0.44721360 0.72360680
v -0.52573111 0.44721360 -0.72360680
v -0.58778525 -0.72360680 0.36180340
v -0.58778525 0.0000000e+0 -0.80901699
v -0.58778525 0.0000000e+0 0.80901699
v -0.58778525 0.72360680 -0.36180340
v -0.50000000 -0.85065081 -0.16245985
v -0.52573111 -0.72360680 -0.44721360
v -0.50000000 -0.52573111 -0.68819096
v -0.50000000 0.52573111 0.68819096
v -0.52573111 0.72360680 0.44721360
v -0.50000000 0.85065081 0.16245985
v -0.44286271 -0.65751317 0.60954823
v -0.44286271 -0.25114768 0.86069592
v -0.44286271 0.25114768 -0.86069592
v -0.44286271 0.65751317 -0.60954823
v -0.42532540 -0.89442719 0.13819660
v -0.42532540 -0.27639320 -0.86180340
v -0.42532540 0.27639320 0.86180340
v -0.42532540 0.89442719 -0.13819660
v -0.30901699 -0.85065081 0.42532540
v -0.29524181 -0.50229537 0.81273098
v -0.30901699 0.0000000e+0 -0.95105652
v -0.30901699 0.0000000e+0 0.95105652
v -0.29524181 0.50229537 -0.81273098
v -0.30901699 0.85065081 -0.42532540
v -0.23885564 -0.96794878 -7.7608902e-2
v -0.26286556 -0.89442719 -0.36180340
v -0.26286556 -0.72360680 -0.63819660
v -0.23885564 -0.50229537 -0.83105195
v -0.23885564 0.50229537 0.83105195
v -0.26286556 0.72360680 0.63819660
v -0.26286556 0.89442719 0.36180340
v -0.23885564 0.96794878 7.7608902e-2
v -0.14762090 -0.96794878 0.20318274
v -0.16245985 -0.72360680 0.67082039
v -0.14762090 -0.25114768 -0.95662579
v -0.16245985 -0.27639320 0.94721360
v -0.16245985 0.27639320 -0.94721360
v -0.14762090 0.25114768 0.95662579
v -0.16245985 0.72360680 -0.67082039
v -0.14762090 0.96794878 -0.20318274
v 0.0000000e+0 -1.00000000 0.0000000e+0
v 0.0000000e+0 -0.96794878 -0.25114768
v 0.0000000e+0 -0.85065081 -0.52573111
v 0.0000000e+0 -0.89442719 0.44721360
v 0.0000000e+0 -0.65751317 -0.75344305
v 0.0000000e+0 -0.44721360 -0.89442719
v 0.0000000e+0 -0.52573111 0.85065081
v 0.0000000e+0 0.0000000e+0 -1.00000000
v 0.0000000e+0 0.0000000e+0 1.00000000
v 0.0000000e+0 0.52573111 -0.85065081
v 0.0000000e+0 0.44721360 0.89442719
v 0.0000000e+0 0.65751317 0.75344305
v 0.0000000e+0 0.89442719 -0.44721360
v 0.0000000e+0 0.85065081 0.52573111
v 0.0000000e+0 0.96794878 0.25114768
v 0.0000000e+0 1.00000000 0.0000000e+0
v 0.14762090 -0.96794878 0.20318274
v 0.16245985 -0.72360680 0.67082039
v 0.14762090 -0.25114768 -0.95662579
v 0.16245985 -0.27639320 0.94721360
v 0.16245985 0.27639320 -0.94721360
v 0.14762090 0.25114768 0.95662579
v 0.16245985 0.72360680 -0.67082039
v 0.14762090 0.96794878 -0.20318274
v 0.23885564 -0.96794878 -7.7608902e-2
v 0.26286556 -0.89442719 -0.36180340
v 0.26286556 -0.72360680 -0.63819660
v 0.23885564 -0.50229537 -0.83105195
v 0.23885564 0.50229537 0.83105195
v 0.26286556 0.72360680 0.63819660
v 0.26286556 0.89442719 0.36180340
v 0.23885564 0.96794878 7.7608902e-2
v 0.30901699 -0.85065081 0.42532540
v 0.29524181 -0.50229537 0.81273098
v 0.30901699 0.0000000e+0 -0.95105652
v 0.30901699 0.0000000e+0 0.95105652
v 0.29524181 0.50229537 -0.81273098
v 0.30901699 0.85065081 -0.42532540
v 0.42532540 -0.89442719 0.13819660
v 0.42532540 -0.27639320 -0.86180340
v 0.42532540 0.89442719 -0.13819660
v 0.42532540 0.27639320 0.86180340
v 0.44286271 -0.65751317 0.60954823
v 0.44286271 -0.25114768 0.86069592
v 0.44286271 0.25114768 -0.86069592
v 0.44286271 0.65751317 -0.60954823
v 0.50000000 -0.85065081 -0.16245985
v 0.52573111 -0.72360680 -0.44721360
v 0.50000000 -0.52573111 -0.68819096
v 0.50000000 0.52573111 0.68819096
v 0.52573111 0.72360680 0.44721360
v 0.50000000 0.85065081 0.16245985
v 0.58778525 -0.72360680 0.36180340
v 0.58778525 -1.7153889e-17 0.80901699
v 0.58778525 0.0000000e+0 -0.80901699
v 0.58778525 0.72360680 -0.36180340
v 0.52573111 -0.44721360 0.72360680
v 0.52573111 0.44721360 -0.72360680
v 0.68819096 -0.27639320 -0.67082039
v 0.68819096 -0.72360680 5.2786405e-2
v 0.68819096 0.27639320 0.67082039
v 0.68819096 0.72360680 -5.2786405e-2
v 0.68171835 -0.50229537 0.53193933
v 0.68171835 -0.25114768 0.68715713
v 0.68171835 0.25114768 -0.68715713
v 0.68171835 0.50229537 -0.53193933
v 0.71656692 -0.65751317 -0.23282671
v 0.71656692 -0.50229537 -0.48397439
v 0.71656692 0.50229537 0.48397439
v 0.71656692 0.65751317 0.23282671
v 0.80901699 -0.52573111 0.26286556
v 0.80901699 0.0000000e+0 -0.58778525
v 0.80901699 0.0000000e+0 0.58778525
v 0.80901699 0.52573111 -0.26286556
v 0.85065081 -0.27639320 0.44721360
v 0.85065081 0.27639320 -0.44721360
v 0.86418783 -0.50229537 -2.9643963e-2
v 0.86418783 -0.25114768 -0.43600945
v 0.95105652 -0.27639320 0.13819660
v 0.95105652 0.0000000e+0 -0.30901699
v 0.95105652 0.0000000e+0 0.30901699
v 0.95105652 0.27639320 -0.13819660
v 0.86418783 0.25114768 0.43600945
v 0.86418783 0.50229537 2.9643963e-2
v 0.85065081 -0.44721360 -0.27639320
v 0.95542256 -0.25114768 -0.15521780
v 1.00000000 0.0000000e+0 0.0000000e+0
v 0.95542256 0.25114768 0.15521780
v 0.85065081 0.44721360 0.27639320
vn 0.85065081 0.44721360 0.27639320
vn 0.95622115 0.24893873 0.15385260
vn 1.00000000 2.3502530e-18 0.0000000e+0
vn 0.95622115 -0.24893873 -0.15385260
vn 0.85065081 -0.44721360 -0.27639320
vn 0.86403145 0.50271521 2.6964355e-2
vn 0.86403145 0.24893873 0.43758333
vn 0.95101804 0.27235925 -0.14623655
vn 0.95101804 -8.9951873e-3 0.30900449
vn 0.95101804 8.9951873e-3 -0.30900449
vn 0.95101804 -0.27235925 0.14623655
vn 0.86403145 -0.24893873 -0.43758333
vn 0.86403145 -0.50271521 -2.6964355e-2
vn 0.85534544 0.27235925 -0.44068652
vn 0.85534544 -0.27235925 0.44068652
vn 0.80901699 0.52573111 -0.26286556
vn 0.80901699 7.0507591e-17 0.58778525
vn 0.80901699 -7.0507591e-17 -0.58778525
vn 0.80901699 -0.52573111 0.26286556
vn 0.71486537 0.65955770 0.23227384
vn 0.71486537 0.50271521 0.48605032
vn 0.71486537 -0.50271521 -0.48605032
vn 0.71486537 -0.65955770 -0.23227384
vn 0.68316687 0.50271521 -0.52967956
vn 0.68316687 0.24893873 -0.68652205
vn 0.68316687 -0.24893873 0.68652205
vn 0.68316687 -0.50271521 0.52967956
vn 0.68343407 0.72760029 -5.9293248e-2
vn 0.68343407 -0.72760029 5.9293248e-2
vn 0.68343407 0.27235925 0.67730223
vn 0.68343407 -0.27235925 -0.67730223
vn 0.52573111 0.44721360 -0.72360680
vn 0.52573111 -0.44721360 0.72360680
vn 0.58776147 0.72760029 -0.35374322
vn 0.58776147 8.9951873e-3 0.80898426
vn 0.58776147 -8.9951873e-3 -0.80898426
vn 0.58776147 -0.72760029 0.35374322
vn 0.50000000 0.85065081 0.16245985
vn 0.51805808 0.72760029 0.44968171
vn 0.50000000 0.52573111 0.68819096
vn 0.50000000 -0.52573111 -0.68819096
vn 0.51805808 -0.72760029 -0.44968171
vn 0.50000000 -0.85065081 -0.16245985
vn 0.44181110 0.65955770 -0.60810081
vn 0.44181110 0.24893873 -0.86187729
vn 0.44181110 -0.24893873 0.86187729
vn 0.44181110 -0.65955770 0.60810081
vn 0.43295996 0.89036823 -0.14067722
vn 0.43295996 0.27235925 0.85928232
vn 0.43295996 -0.27235925 -0.85928232
vn 0.43295996 -0.89036823 0.14067722
vn 0.30901699 0.85065081 -0.42532540
vn 0.29264503 0.50271521 -0.81341029
vn 0.30901699 -3.7604048e-17 0.95105652
vn 0.30901699 4.2304554e-17 -0.95105652
vn 0.29264503 -0.50271521 0.81341029
vn 0.30901699 -0.85065081 0.42532540
vn 0.24135578 0.96726289 7.8421245e-2
vn 0.26758397 0.89036823 0.36829774
vn 0.26758397 0.72760029 0.63166180
vn 0.24135578 0.50271521 0.83007518
vn 0.24135578 -0.50271521 -0.83007518
vn 0.26758397 -0.72760029 -0.63166180
vn 0.26758397 -0.89036823 -0.36829774
vn 0.24135578 -0.96726289 -7.8421245e-2
vn 0.14916607 0.96726289 -0.20530949
vn 0.15480151 0.72760029 -0.66830704
vn 0.14916607 0.24893873 0.95696342
vn 0.15480151 0.27235925 -0.94966148
vn 0.15480151 -0.27235925 0.94966148
vn 0.14916607 -0.24893873 -0.95696342
vn 0.15480151 -0.72760029 0.66830704
vn 0.14916607 -0.96726289 0.20530949
vn 2.8098785e-18 1.00000000 -2.8660760e-16
vn -9.3836740e-18 0.96726289 0.25377648
vn -2.8203036e-17 0.85065081 0.52573111
vn 0.0000000e+0 0.89036823 -0.45524104
vn 4.6918370e-18 0.65955770 0.75165394
vn 0.0000000e+0 0.44721360 0.89442719
vn 4.7005060e-18 0.52573111 -0.85065081
vn 0.0000000e+0 -8.9951873e-3 0.99995954
vn 0.0000000e+0 8.9951873e-3 -0.99995954
vn 4.7005060e-18 -0.52573111 0.85065081
vn -4.4958056e-17 -0.44721360 -0.89442719
vn 3.0966124e-16 -0.65955770 -0.75165394
vn 0.0000000e+0 -0.89036823 0.45524104
vn 1.3631468e-16 -0.85065081 -0.52573111
vn -9.3836740e-18 -0.96726289 -0.25377648
vn 0.0000000e+0 -1.00000000 2.8379773e-16
vn -0.14916607 0.96726289 -0.20530949
vn -0.15480151 0.72760029 -0.66830704
vn -0.14916607 0.24893873 0.95696342
vn -0.15480151 0.27235925 -0.94966148
vn -0.15480151 -0.27235925 0.94966148
vn -0.14916607 -0.24893873 -0.95696342
vn -0.15480151 -0.72760029 0.66830704
vn -0.14916607 -0.96726289 0.20530949
vn -0.24135578 0.96726289 7.8421245e-2
vn -0.26758397 0.89036823 0.36829774
vn -0.26758397 0.72760029 0.63166180
vn -0.24135578 0.50271521 0.83007518
vn -0.24135578 -0.50271521 -0.83007518
vn -0.26758397 -0.72760029 -0.63166180
vn -0.26758397 -0.89036823 -0.36829774
vn -0.24135578 -0.96726289 -7.8421245e-2
vn -0.30901699 0.85065081 -0.42532540
vn -0.29264503 0.50271521 -0.81341029
vn -0.30901699 -5.6406072e-17 0.95105652
vn -0.30901699 -3.9954301e-17 -0.95105652
vn -0.29264503 -0.50271521 0.81341029
vn -0.30901699 -0.85065081 0.42532540
vn -0.43295996 0.89036823 -0.14067722
vn -0.43295996 0.27235925 0.85928232
vn -0.43295996 -0.89036823 0.14067722
vn -0.43295996 -0.27235925 -0.85928232
vn -0.44181110 0.65955770 -0.60810081
vn -0.44181110 0.24893873 -0.86187729
vn -0.44181110 -0.24893873 0.86187729
vn -0.44181110 -0.65955770 0.60810081
vn -0.50000000 0.85065081 0.16245985
vn -0.51805808 0.72760029 0.44968171
vn -0.50000000 0.52573111 0.68819096
vn -0.50000000 -0.52573111 -0.68819096
vn -0.51805808 -0.72760029 -0.44968171
vn -0.50000000 -0.85065081 -0.16245985
vn -0.58776147 0.72760029 -0.35374322
vn -0.58776147 -8.9951873e-3 -0.80898426
vn -0.58776147 8.9951873e-3 0.80898426
vn -0.58776147 -0.72760029 0.35374322
vn -0.52573111 0.44721360 -0.72360680
vn -0.52573111 -0.44721360 0.72360680
vn -0.68343407 0.27235925 0.67730223
vn -0.68343407 0.72760029 -5.9293248e-2
vn -0.68343407 -0.27235925 -0.67730223
vn -0.68343407 -0.72760029 5.9293248e-2
vn -0.68316687 0.50271521 -0.52967956
vn -0.68316687 0.24893873 -0.68652205
vn -0.68316687 -0.24893873 0.68652205
vn -0.68316687 -0.50271521 0.52967956
vn -0.71486537 0.65955770 0.23227384
vn -0.71486537 0.50271521 0.48605032
vn -0.71486537 -0.50271521 -0.48605032
vn -0.71486537 -0.65955770 -0.23227384
vn -0.80901699 0.52573111 -0.26286556
vn -0.80901699 7.0507591e-17 0.58778525
vn -0.80901699 -7.7558350e-17 -0.58778525
vn -0.80901699 -0.52573111 0.26286556
vn -0.85534544 0.27235925 -0.44068652
vn -0.85534544 -0.27235925 0.44068652
vn -0.86403145 0.50271521 2.6964355e-2
vn -0.86403145 0.24893873 0.43758333
vn -0.95101804 0.27235925 -0.14623655
vn -0.95101804 -8.9951873e-3 0.30900449
vn -0.95101804 8.9951873e-3 -0.30900449
vn -0.95101804 -0.27235925 0.14623655
vn -0.86403145 -0.24893873 -0.43758333
vn -0.86403145 -0.50271521 -2.6964355e-2
vn -0.85065081 0.44721360 0.27639320
vn -0.95622115 0.24893873 0.15385260
vn -1.00000000 -1.1046189e-16 0.0000000e+0
vn -0.95622115 -0.24893873 -0.15385260
vn -0.85065081 -0.44721360 -0.27639320
g F4:GeoDome3_default
usemtl sky
f 1//1 7//7 2//2
f 1//1 21//21 7//7
f 2//2 6//6 1//1
f 2//2 8//8 6//6
f 2//2 9//9 3//3
f 3//3 8//8 2//2
f 3//3 10//10 8//8
f 3//3 11//11 4//4
f 4//4 10//10 3//3
f 4//4 12//12 10//10
f 4//4 13//13 5//5
f 5//5 12//12 4//4
f 5//5 22//22 12//12
f 5//5 23//23 22//22
f 6//6 20//20 1//1
f 6//6 28//28 20//20
f 7//7 9//9 2//2
f 7//7 17//17 9//9
f 7//7 30//30 17//17
f 8//8 16//16 6//6
f 9//9 11//11 3//3
f 9//9 15//15 11//11
f 9//9 17//17 15//15
f 10//10 14//14 8//8
f 10//10 18//18 14//14
f 11//11 13//13 4//4
f 11//11 19//19 13//13
f 12//12 18//18 10//10
f 12//12 31//31 18//18
f 13//13 23//23 5//5
f 13//13 29//29 23//23
f 14//14 16//16 8//8
f 14//14 24//24 16//16
f 14//14 25//25 24//24
f 15//15 19//19 11//11
f 15//15 27//27 19//19
f 16//16 28//28 6//6
f 16//16 34//34 28//28
f 17//17 26//26 15//15
f 17//17 35//35 26//26
f 18//18 25//25 14//14
f 18//18 36//36 25//25
f 19//19 29//29 13//13
f 19//19 37//37 29//29
f 20//20 21//21 1//1
f 20//20 39//39 21//21
f 21//21 30//30 7//7
f 21//21 40//40 30//30
f 22//22 31//31 12//12
f 22//22 41//41 31//31
f 22//22 42//42 41//41
f 23//23 42//42 22//22
f 23//23 43//43 42//42
f 24//24 34//34 16//16
f 24//24 44//44 34//34
f 25//25 32//32 24//24
f 25//25 45//45 32//32
f 26//26 27//27 15//15
f 26//26 33//33 27//27
f 26//26 46//46 33//33
f 27//27 37//37 19//19
f 27//27 47//47 37//37
f 28//28 38//38 20//20
f 28//28 48//48 38//38
f 29//29 43//43 23//23
f 29//29 51//51 43//43
f 30//30 35//35 17//17
f 30//30 49//49 35//35
f 31//31 36//36 18//18
f 31//31 50//50 36//36
f 32//32 44//44 24//24
f 32//32 53//53 44//44
f 33//33 47//47 27//27
f 33//33 56//56 47//47
f 34//34 48//48 28//28
f 34//34 52//52 48//48
f 35//35 46//46 26//26
f 35//35 54//54 46//46
f 36//36 45//45 25//25
f 36//36 55//55 45//45
f 37//37 51//51 29//29
f 37//37 57//57 51//51
f 38//38 39//39 20//20
f 38//38 59//59 39//39
f 39//39 40//40 21//21
f 39//39 60//60 40//40
f 40//40 49//49 30//30
f 40//40 61//61 49//49
f 41//41 50//50 31//31
f 41//41 62//62 50//50
f 41//41 63//63 62//62
f 42//42 63//63 41//41
f 42//42 64//64 63//63
f 43//43 64//64 42//42
f 43//43 65//65 64//64
f 44//44 52//52 34//34
f 44//44 67//67 52//52
f 45//45 53//53 32//32
f 45//45 69//69 53//53
f 46//46 56//56 33//33
f 46//46 70//70 56//56
f 47//47 57//57 37//37
f 47//47 72//72 57//57
f 48//48 58//58 38//38
f 48//48 66//66 58//58
f 49//49 54//54 35//35
f 49//49 68//68 54//54
f 50//50 55//55 36//36
f 50//50 71//71 55//55
f 51//51 65//65 43//43
f 51//51 73//73 65//65
f 52//52 66//66 48//48
f 52//52 77//77 66//66
f 53//53 67//67 44//44
f 53//53 80//80 67//67
f 54//54 70//70 46//46
f 54//54 81//81 70//70
f 55//55 69//69 45//45
f 55//55 82//82 69//69
f 56//56 72//72 47//47
f 56//56 83//83 72//72
f 57//57 73//73 51//51
f 57//57 86//86 73//73
f 58//58 59//59 38//38
f 58//58 75//75 59//59
f 59//59 60//60 39//39
f 59//59 76//76 60//60
f 60//60 61//61 40//40
f 60//60 78//78 61//61
f 61//61 68//68 49//49
f 61//61 79//79 68//68
f 62//62 71//71 50//50
f 62//62 84//84 71//71
f 62//62 85//85 84//84
f 63//63 85//85 62//62
f 63//63 87//87 85//85
f 64//64 87//87 63//63
f 64//64 88//88 87//87
f 65//65 88//88 64//64
f 65//65 89//89 88//88
f 66//66 74//74 58//58
f 66//66 90//90 74//74
f 67//67 77//77 52//52
f 67//67 91//91 77//77
f 68//68 81//81 54//54
f 68//68 92//92 81//81
f 69//69 80//80 53//53
f 69//69 93//93 80//80
f 70//70 83//83 56//56
f 70//70 94//94 83//83
f 71//71 82//82 55//55
f 71//71 95//95 82//82
f 72//72 86//86 57//57
f 72//72 96//96 86//86
f 73//73 89//89 65//65
f 73//73 97//97 89//89
f 74//74 75//75 58//58
f 74//74 98//98 75//75
f 75//75 76//76 59//59
f 75//75 99//99 76//76
f 76//76 78//78 60//60
f 76//76 100//100 78//78
f 77//77 90//90 66//66
f 77//77 106//106 90//90
f 78//78 79//79 61//61
f 78//78 101//101 79//79
f 79//79 92//92 68//68
f 79//79 101//101 92//92
f 80//80 91//91 67//67
f 80//80 107//107 91//91
f 81//81 94//94 70//70
f 81//81 108//108 94//94
f 82//82 93//93 69//69
f 82//82 109//109 93//93
f 83//83 96//96 72//72
f 83//83 110//110 96//96
f 84//84 95//95 71//71
f 84//84 102//102 95//95
f 85//85 102//102 84//84
f 85//85 103//103 102//102
f 86//86 97//97 73//73
f 86//86 111//111 97//97
f 87//87 103//103 85//85
f 87//87 104//104 103//103
f 88//88 104//104 87//87
f 88//88 105//105 104//104
f 89//89 105//105 88//88
f 90//90 98//98 74//74
f 90//90 112//112 98//98
f 91//91 106//106 77//77
f 91//91 116//116 106//106
f 92//92 108//108 81//81
f 92//92 113//113 108//108
f 93//93 107//107 80//80
f 93//93 117//117 107//107
f 94//94 110//110 83//83
f 94//94 118//118 110//110
f 95//95 109//109 82//82
f 95//95 115//115 109//109
f 96//96 111//111 86//86
f 96//96 119//119 111//111
f 97//97 105//105 89//89
f 97//97 114//114 105//105
f 98//98 99//99 75//75
f 98//98 120//120 99//99
f 99//99 100//100 76//76
f 99//99 121//121 100//100
f 100//100 101//101 78//78
f 100//100 122//122 101//101
f 101//101 113//113 92//92
f 101//101 122//122 113//113
f 102//102 115//115 95//95
f 102//102 123//123 115//115
f 103//103 123//123 102//102
f 103//103 124//124 123//123
f 104//104 124//124 103//103
f 104//104 125//125 124//124
f 105//105 125//125 104//104
f 106//106 112//112 90//90
f 106//106 126//126 112//112
f 107//107 116//116 91//91
f 107//107 130//130 116//116
f 108//108 118//118 94//94
f 108//108 128//128 118//118
f 109//109 117//117 93//93
f 109//109 127//127 117//117
f 110//110 119//119 96//96
f 110//110 131//131 119//119
f 111//111 114//114 97//97
f 111//111 129//129 114//114
f 112//112 120//120 98//98
f 112//112 133//133 120//120
f 113//113 128//128 108//108
f 113//113 132//132 128//128
f 114//114 125//125 105//105
f 114//114 135//135 125//125
f 115//115 127//127 109//109
f 115//115 134//134 127//127
f 116//116 126//126 106//106
f 116//116 136//136 126//126
f 117//117 130//130 107//107
f 117//117 137//137 130//130
f 118//118 131//131 110//110
f 118//118 138//138 131//131
f 119//119 129//129 111//111
f 119//119 139//139 129//129
f 120//120 121//121 99//99
f 120//120 140//140 121//121
f 121//121 122//122 100//100
f 121//121 141//141 122//122
f 122//122 132//132 113//113
f 122//122 141//141 132//132
f 123//123 134//134 115//115
f 123//123 142//142 134//134
f 124//124 142//142 123//123
f 124//124 143//143 142//142
f 125//125 143//143 124//124
f 126//126 133//133 112//112
f 126//126 144//144 133//133
f 127//127 137//137 117//117
f 127//127 146//146 137//137
f 128//128 138//138 118//118
f 128//128 145//145 138//138
f 129//129 135//135 114//114
f 129//129 147//147 135//135
f 130//130 136//136 116//116
f 130//130 137//137 136//136
f 131//131 139//139 119//119
f 132//132 145//145 128//128
f 132//132 151//151 145//145
f 133//133 140//140 120//120
f 133//133 150//150 140//140
f 134//134 146//146 127//127
f 134//134 156//156 146//146
f 135//135 143//143 125//125
f 135//135 157//157 143//143
f 136//136 144//144 126//126
f 136//136 148//148 144//144
f 137//137 148//148 136//136
f 138//138 139//139 131//131
f 138//138 149//149 139//139
f 139//139 147//147 129//129
f 139//139 149//149 147//147
f 140//140 141//141 121//121
f 140//140 158//158 141//141
f 141//141 151//151 132//132
f 141//141 158//158 151//151
f 142//142 156//156 134//134
f 142//142 162//162 156//156
f 143//143 162//162 142//142
f 144//144 150//150 133//133
f 144//144 152//152 150//150
f 145//145 149//149 138//138
f 145//145 153//153 149//149
f 146//146 148//148 137//137
f 146//146 154//154 148//148
f 146//146 156//156 154//154
f 147//147 157//157 135//135
f 148//148 152//152 144//144
f 148//148 154//154 152//152
f 149//149 155//155 147//147
f 150//150 158//158 140//140
f 150//150 159//159 158//158
f 151//151 153//153 145//145
f 151//151 159//159 153//153
f 152//152 159//159 150//150
f 152//152 160//160 159//159
f 153//153 155//155 149//149
f 153//153 160//160 155//155
f 154//154 160//160 152//152
f 154//154 161//161 160//160
f 155//155 157//157 147//147
f 155//155 161//161 157//157
f 156//156 161//161 154//154
f 156//156 162//162 161//161
f 157//157 162//162 143//143
f 158//158 159//159 151//151
f 159//159 160//160 153//153
f 160//160 161//161 155//155
f 161//161 162//162 157//157
