# Exported from Wings 3D 0.98.33
o cube1
#8 vertices, 6 faces
v -0.5 -0.5 0.5
v -0.5 0.5 0.5
v 0.5 0.5 0.5
v 0.5 -0.5 0.5
v -0.5 -0.5 -0.5
v -0.5 0.5 -0.5
v 0.5 0.5 -0.5
v 0.5 -0.5 -0.5
vt 0.0000000e+0 0.0000000e+0
vt 0.0000000e+0 0.50000000
vt 0.0000000e+0 0.50000000
vt 0.0000000e+0 1.00000000
vt 5.5511151e-17 1.00000000
vt 0.50000000 0.0000000e+0
vt 0.50000000 0.50000000
vt 0.50000000 0.50000000
vt 0.50000000 1.00000000
vt 0.50000000 0.0000000e+0
vt 0.50000000 0.50000000
vt 0.50000000 0.50000000
vt 0.50000000 1.00000000
vt 0.50000000 1.00000000
vt 0.50000000 0.50000000
vt 0.50000000 1.00000000
vt 1.00000000 0.0000000e+0
vt 1.00000000 0.50000000
vt 1.00000000 0.50000000
vt 1.00000000 1.00000000
vn 0.0000000e+0 0.0000000e+0 1.00000000
vn 0.0000000e+0 -1.00000000 0.0000000e+0
vn -1.00000000 0.0000000e+0 0.0000000e+0
vn 0.0000000e+0 0.0000000e+0 1.00000000
vn 0.0000000e+0 1.00000000 0.0000000e+0
vn -1.00000000 0.0000000e+0 0.0000000e+0
vn 0.0000000e+0 0.0000000e+0 1.00000000
vn 1.00000000 0.0000000e+0 0.0000000e+0
vn 0.0000000e+0 1.00000000 0.0000000e+0
vn 0.0000000e+0 0.0000000e+0 1.00000000
vn 1.00000000 0.0000000e+0 0.0000000e+0
vn 0.0000000e+0 -1.00000000 0.0000000e+0
vn 0.0000000e+0 -1.00000000 0.0000000e+0
vn 0.0000000e+0 0.0000000e+0 -1.00000000
vn -1.00000000 0.0000000e+0 0.0000000e+0
vn 0.0000000e+0 1.00000000 0.0000000e+0
vn 0.0000000e+0 0.0000000e+0 -1.00000000
vn -1.00000000 0.0000000e+0 0.0000000e+0
vn 1.00000000 0.0000000e+0 0.0000000e+0
vn 0.0000000e+0 1.00000000 0.0000000e+0
vn 0.0000000e+0 0.0000000e+0 -1.00000000
vn 1.00000000 0.0000000e+0 0.0000000e+0
vn 0.0000000e+0 -1.00000000 0.0000000e+0
vn 0.0000000e+0 0.0000000e+0 -1.00000000
g cube1_cube1_auv
usemtl wood
f 1/11/1 4/18/10 3/20/7 2/14/4
f 1/1/2 5/6/13 8/7/23 4/2/12
f 2/13/6 6/4/18 5/3/15 1/12/3
f 3/17/9 7/18/20 6/11/16 2/10/5
f 4/3/11 8/8/22 7/9/19 3/5/8
f 6/20/17 7/16/21 8/15/24 5/19/14
